<?xml version="1.0" encoding="utf-8" standalone="no"?>
<!DOCTYPE svg PUBLIC "-//W3C//DTD SVG 1.1//EN"
  "http://www.w3.org/Graphics/SVG/1.1/DTD/svg11.dtd">
<!-- Created with matplotlib (http://matplotlib.org/) -->
<svg height="713pt" version="1.1" viewBox="0 0 567 713" width="567pt" xmlns="http://www.w3.org/2000/svg" xmlns:xlink="http://www.w3.org/1999/xlink">
 <defs>
  <style type="text/css">
*{stroke-linecap:butt;stroke-linejoin:round;}
  </style>
 </defs>
 <g id="figure_1">
  <g id="patch_1">
   <path d="M 0 713.238906 
L 567.696719 713.238906 
L 567.696719 0 
L 0 0 
z
" style="fill:#ffffff;"/>
  </g>
  <g id="axes_1">
   <g id="patch_2">
    <path d="M 298.721719 207.8 
L 560.496719 207.8 
L 560.496719 7.2 
L 298.721719 7.2 
z
" style="fill:#eaeaf2;"/>
   </g>
   <g id="matplotlib.axis_1">
    <g id="xtick_1">
     <g id="line2d_1">
      <path clip-path="url(#p9a7180607a)" d="M 298.721719 207.8 
L 298.721719 7.2 
" style="fill:none;stroke:#ffffff;stroke-linecap:round;"/>
     </g>
     <g id="line2d_2"/>
     <g id="text_1">
      <!-- 0 -->
      <defs>
       <path d="M 4.15625 35.296875 
Q 4.15625 48 6.765625 55.734375 
Q 9.375 63.484375 14.515625 67.671875 
Q 19.671875 71.875 27.484375 71.875 
Q 33.25 71.875 37.59375 69.546875 
Q 41.9375 67.234375 44.765625 62.859375 
Q 47.609375 58.5 49.21875 52.21875 
Q 50.828125 45.953125 50.828125 35.296875 
Q 50.828125 22.703125 48.234375 14.96875 
Q 45.65625 7.234375 40.5 3 
Q 35.359375 -1.21875 27.484375 -1.21875 
Q 17.140625 -1.21875 11.234375 6.203125 
Q 4.15625 15.140625 4.15625 35.296875 
M 13.1875 35.296875 
Q 13.1875 17.671875 17.3125 11.828125 
Q 21.4375 6 27.484375 6 
Q 33.546875 6 37.671875 11.859375 
Q 41.796875 17.71875 41.796875 35.296875 
Q 41.796875 52.984375 37.671875 58.78125 
Q 33.546875 64.59375 27.390625 64.59375 
Q 21.34375 64.59375 17.71875 59.46875 
Q 13.1875 52.9375 13.1875 35.296875 
" id="ArialMT-30"/>
      </defs>
      <g style="fill:#262626;" transform="translate(295.107109 224.105156)scale(0.13 -0.13)">
       <use xlink:href="#ArialMT-30"/>
      </g>
     </g>
    </g>
    <g id="xtick_2">
     <g id="line2d_3">
      <path clip-path="url(#p9a7180607a)" d="M 369.953011 207.8 
L 369.953011 7.2 
" style="fill:none;stroke:#ffffff;stroke-linecap:round;"/>
     </g>
     <g id="line2d_4"/>
     <g id="text_2">
      <!-- 20 -->
      <defs>
       <path d="M 50.34375 8.453125 
L 50.34375 0 
L 3.03125 0 
Q 2.9375 3.171875 4.046875 6.109375 
Q 5.859375 10.9375 9.828125 15.625 
Q 13.8125 20.3125 21.34375 26.46875 
Q 33.015625 36.03125 37.109375 41.625 
Q 41.21875 47.21875 41.21875 52.203125 
Q 41.21875 57.421875 37.46875 61 
Q 33.734375 64.59375 27.734375 64.59375 
Q 21.390625 64.59375 17.578125 60.78125 
Q 13.765625 56.984375 13.71875 50.25 
L 4.6875 51.171875 
Q 5.609375 61.28125 11.65625 66.578125 
Q 17.71875 71.875 27.9375 71.875 
Q 38.234375 71.875 44.234375 66.15625 
Q 50.25 60.453125 50.25 52 
Q 50.25 47.703125 48.484375 43.546875 
Q 46.734375 39.40625 42.65625 34.8125 
Q 38.578125 30.21875 29.109375 22.21875 
Q 21.1875 15.578125 18.9375 13.203125 
Q 16.703125 10.84375 15.234375 8.453125 
z
" id="ArialMT-32"/>
      </defs>
      <g style="fill:#262626;" transform="translate(362.723793 224.105156)scale(0.13 -0.13)">
       <use xlink:href="#ArialMT-32"/>
       <use x="55.615234" xlink:href="#ArialMT-30"/>
      </g>
     </g>
    </g>
    <g id="xtick_3">
     <g id="line2d_5">
      <path clip-path="url(#p9a7180607a)" d="M 441.184304 207.8 
L 441.184304 7.2 
" style="fill:none;stroke:#ffffff;stroke-linecap:round;"/>
     </g>
     <g id="line2d_6"/>
     <g id="text_3">
      <!-- 40 -->
      <defs>
       <path d="M 32.328125 0 
L 32.328125 17.140625 
L 1.265625 17.140625 
L 1.265625 25.203125 
L 33.9375 71.578125 
L 41.109375 71.578125 
L 41.109375 25.203125 
L 50.78125 25.203125 
L 50.78125 17.140625 
L 41.109375 17.140625 
L 41.109375 0 
z
M 32.328125 25.203125 
L 32.328125 57.46875 
L 9.90625 25.203125 
z
" id="ArialMT-34"/>
      </defs>
      <g style="fill:#262626;" transform="translate(433.955085 224.105156)scale(0.13 -0.13)">
       <use xlink:href="#ArialMT-34"/>
       <use x="55.615234" xlink:href="#ArialMT-30"/>
      </g>
     </g>
    </g>
    <g id="xtick_4">
     <g id="line2d_7">
      <path clip-path="url(#p9a7180607a)" d="M 512.415596 207.8 
L 512.415596 7.2 
" style="fill:none;stroke:#ffffff;stroke-linecap:round;"/>
     </g>
     <g id="line2d_8"/>
     <g id="text_4">
      <!-- 60 -->
      <defs>
       <path d="M 49.75 54.046875 
L 41.015625 53.375 
Q 39.84375 58.546875 37.703125 60.890625 
Q 34.125 64.65625 28.90625 64.65625 
Q 24.703125 64.65625 21.53125 62.3125 
Q 17.390625 59.28125 14.984375 53.46875 
Q 12.59375 47.65625 12.5 36.921875 
Q 15.671875 41.75 20.265625 44.09375 
Q 24.859375 46.4375 29.890625 46.4375 
Q 38.671875 46.4375 44.84375 39.96875 
Q 51.03125 33.5 51.03125 23.25 
Q 51.03125 16.5 48.125 10.71875 
Q 45.21875 4.9375 40.140625 1.859375 
Q 35.0625 -1.21875 28.609375 -1.21875 
Q 17.625 -1.21875 10.6875 6.859375 
Q 3.765625 14.9375 3.765625 33.5 
Q 3.765625 54.25 11.421875 63.671875 
Q 18.109375 71.875 29.4375 71.875 
Q 37.890625 71.875 43.28125 67.140625 
Q 48.6875 62.40625 49.75 54.046875 
M 13.875 23.1875 
Q 13.875 18.65625 15.796875 14.5 
Q 17.71875 10.359375 21.1875 8.171875 
Q 24.65625 6 28.46875 6 
Q 34.03125 6 38.03125 10.484375 
Q 42.046875 14.984375 42.046875 22.703125 
Q 42.046875 30.125 38.078125 34.390625 
Q 34.125 38.671875 28.125 38.671875 
Q 22.171875 38.671875 18.015625 34.390625 
Q 13.875 30.125 13.875 23.1875 
" id="ArialMT-36"/>
      </defs>
      <g style="fill:#262626;" transform="translate(505.186378 224.105156)scale(0.13 -0.13)">
       <use xlink:href="#ArialMT-36"/>
       <use x="55.615234" xlink:href="#ArialMT-30"/>
      </g>
     </g>
    </g>
   </g>
   <g id="matplotlib.axis_2">
    <g id="ytick_1">
     <g id="line2d_9"/>
     <g id="text_5">
      <!-- CEM  -->
      <defs>
       <path d="M 58.796875 25.09375 
L 68.265625 22.703125 
Q 65.28125 11.03125 57.546875 4.90625 
Q 49.8125 -1.21875 38.625 -1.21875 
Q 27.046875 -1.21875 19.796875 3.484375 
Q 12.546875 8.203125 8.765625 17.140625 
Q 4.984375 26.078125 4.984375 36.328125 
Q 4.984375 47.515625 9.25 55.828125 
Q 13.53125 64.15625 21.40625 68.46875 
Q 29.296875 72.796875 38.765625 72.796875 
Q 49.515625 72.796875 56.828125 67.328125 
Q 64.15625 61.859375 67.046875 51.953125 
L 57.71875 49.75 
Q 55.21875 57.5625 50.484375 61.125 
Q 45.75 64.703125 38.578125 64.703125 
Q 30.328125 64.703125 24.78125 60.734375 
Q 19.234375 56.78125 16.984375 50.109375 
Q 14.75 43.453125 14.75 36.375 
Q 14.75 27.25 17.40625 20.4375 
Q 20.0625 13.625 25.671875 10.25 
Q 31.296875 6.890625 37.84375 6.890625 
Q 45.796875 6.890625 51.3125 11.46875 
Q 56.84375 16.0625 58.796875 25.09375 
" id="ArialMT-43"/>
       <path d="M 7.90625 0 
L 7.90625 71.578125 
L 59.671875 71.578125 
L 59.671875 63.140625 
L 17.390625 63.140625 
L 17.390625 41.21875 
L 56.984375 41.21875 
L 56.984375 32.8125 
L 17.390625 32.8125 
L 17.390625 8.453125 
L 61.328125 8.453125 
L 61.328125 0 
z
" id="ArialMT-45"/>
       <path d="M 7.421875 0 
L 7.421875 71.578125 
L 21.6875 71.578125 
L 38.625 20.90625 
Q 40.96875 13.8125 42.046875 10.296875 
Q 43.265625 14.203125 45.84375 21.78125 
L 62.984375 71.578125 
L 75.734375 71.578125 
L 75.734375 0 
L 66.609375 0 
L 66.609375 59.90625 
L 45.796875 0 
L 37.25 0 
L 16.546875 60.9375 
L 16.546875 0 
z
" id="ArialMT-4d"/>
       <path id="ArialMT-20"/>
      </defs>
      <g style="fill:#262626;" transform="translate(259.221719 21.882578)scale(0.13 -0.13)">
       <use xlink:href="#ArialMT-43"/>
       <use x="72.216797" xlink:href="#ArialMT-45"/>
       <use x="138.916016" xlink:href="#ArialMT-4d"/>
       <use x="222.216797" xlink:href="#ArialMT-20"/>
      </g>
     </g>
    </g>
    <g id="ytick_2">
     <g id="line2d_10"/>
     <g id="text_6">
      <!-- hook sensillum  -->
      <defs>
       <path d="M 6.59375 0 
L 6.59375 71.578125 
L 15.375 71.578125 
L 15.375 45.90625 
Q 21.53125 53.03125 30.90625 53.03125 
Q 36.671875 53.03125 40.921875 50.75 
Q 45.171875 48.484375 47 44.484375 
Q 48.828125 40.484375 48.828125 32.859375 
L 48.828125 0 
L 40.046875 0 
L 40.046875 32.859375 
Q 40.046875 39.453125 37.1875 42.453125 
Q 34.328125 45.453125 29.109375 45.453125 
Q 25.203125 45.453125 21.75 43.421875 
Q 18.3125 41.40625 16.84375 37.9375 
Q 15.375 34.46875 15.375 28.375 
L 15.375 0 
z
" id="ArialMT-68"/>
       <path d="M 3.328125 25.921875 
Q 3.328125 40.328125 11.328125 47.265625 
Q 18.015625 53.03125 27.640625 53.03125 
Q 38.328125 53.03125 45.109375 46.015625 
Q 51.90625 39.015625 51.90625 26.65625 
Q 51.90625 16.65625 48.90625 10.90625 
Q 45.90625 5.171875 40.15625 2 
Q 34.421875 -1.171875 27.640625 -1.171875 
Q 16.75 -1.171875 10.03125 5.8125 
Q 3.328125 12.796875 3.328125 25.921875 
M 12.359375 25.921875 
Q 12.359375 15.96875 16.703125 11.015625 
Q 21.046875 6.0625 27.640625 6.0625 
Q 34.1875 6.0625 38.53125 11.03125 
Q 42.875 16.015625 42.875 26.21875 
Q 42.875 35.84375 38.5 40.796875 
Q 34.125 45.75 27.640625 45.75 
Q 21.046875 45.75 16.703125 40.8125 
Q 12.359375 35.890625 12.359375 25.921875 
" id="ArialMT-6f"/>
       <path d="M 6.640625 0 
L 6.640625 71.578125 
L 15.4375 71.578125 
L 15.4375 30.765625 
L 36.234375 51.859375 
L 47.609375 51.859375 
L 27.78125 32.625 
L 49.609375 0 
L 38.765625 0 
L 21.625 26.515625 
L 15.4375 20.5625 
L 15.4375 0 
z
" id="ArialMT-6b"/>
       <path d="M 3.078125 15.484375 
L 11.765625 16.84375 
Q 12.5 11.625 15.84375 8.84375 
Q 19.1875 6.0625 25.203125 6.0625 
Q 31.25 6.0625 34.171875 8.515625 
Q 37.109375 10.984375 37.109375 14.3125 
Q 37.109375 17.28125 34.515625 19 
Q 32.71875 20.171875 25.53125 21.96875 
Q 15.875 24.421875 12.140625 26.203125 
Q 8.40625 27.984375 6.46875 31.125 
Q 4.546875 34.28125 4.546875 38.09375 
Q 4.546875 41.546875 6.125 44.5 
Q 7.71875 47.46875 10.453125 49.421875 
Q 12.5 50.921875 16.03125 51.96875 
Q 19.578125 53.03125 23.640625 53.03125 
Q 29.734375 53.03125 34.34375 51.265625 
Q 38.96875 49.515625 41.15625 46.5 
Q 43.359375 43.5 44.1875 38.484375 
L 35.59375 37.3125 
Q 35.015625 41.3125 32.203125 43.546875 
Q 29.390625 45.796875 24.265625 45.796875 
Q 18.21875 45.796875 15.625 43.796875 
Q 13.03125 41.796875 13.03125 39.109375 
Q 13.03125 37.40625 14.109375 36.03125 
Q 15.1875 34.625 17.484375 33.6875 
Q 18.796875 33.203125 25.25 31.453125 
Q 34.578125 28.953125 38.25 27.359375 
Q 41.9375 25.78125 44.03125 22.75 
Q 46.140625 19.734375 46.140625 15.234375 
Q 46.140625 10.84375 43.578125 6.953125 
Q 41.015625 3.078125 36.171875 0.953125 
Q 31.34375 -1.171875 25.25 -1.171875 
Q 15.140625 -1.171875 9.84375 3.03125 
Q 4.546875 7.234375 3.078125 15.484375 
" id="ArialMT-73"/>
       <path d="M 42.09375 16.703125 
L 51.171875 15.578125 
Q 49.03125 7.625 43.21875 3.21875 
Q 37.40625 -1.171875 28.375 -1.171875 
Q 17 -1.171875 10.328125 5.828125 
Q 3.65625 12.84375 3.65625 25.484375 
Q 3.65625 38.578125 10.390625 45.796875 
Q 17.140625 53.03125 27.875 53.03125 
Q 38.28125 53.03125 44.875 45.953125 
Q 51.46875 38.875 51.46875 26.03125 
Q 51.46875 25.25 51.421875 23.6875 
L 12.75 23.6875 
Q 13.234375 15.140625 17.578125 10.59375 
Q 21.921875 6.0625 28.421875 6.0625 
Q 33.25 6.0625 36.671875 8.59375 
Q 40.09375 11.140625 42.09375 16.703125 
M 13.234375 30.90625 
L 42.1875 30.90625 
Q 41.609375 37.453125 38.875 40.71875 
Q 34.671875 45.796875 27.984375 45.796875 
Q 21.921875 45.796875 17.796875 41.75 
Q 13.671875 37.703125 13.234375 30.90625 
" id="ArialMT-65"/>
       <path d="M 6.59375 0 
L 6.59375 51.859375 
L 14.5 51.859375 
L 14.5 44.484375 
Q 20.21875 53.03125 31 53.03125 
Q 35.6875 53.03125 39.625 51.34375 
Q 43.5625 49.65625 45.515625 46.921875 
Q 47.46875 44.1875 48.25 40.4375 
Q 48.734375 37.984375 48.734375 31.890625 
L 48.734375 0 
L 39.9375 0 
L 39.9375 31.546875 
Q 39.9375 36.921875 38.90625 39.578125 
Q 37.890625 42.234375 35.28125 43.8125 
Q 32.671875 45.40625 29.15625 45.40625 
Q 23.53125 45.40625 19.453125 41.84375 
Q 15.375 38.28125 15.375 28.328125 
L 15.375 0 
z
" id="ArialMT-6e"/>
       <path d="M 6.640625 61.46875 
L 6.640625 71.578125 
L 15.4375 71.578125 
L 15.4375 61.46875 
z
M 6.640625 0 
L 6.640625 51.859375 
L 15.4375 51.859375 
L 15.4375 0 
z
" id="ArialMT-69"/>
       <path d="M 6.390625 0 
L 6.390625 71.578125 
L 15.1875 71.578125 
L 15.1875 0 
z
" id="ArialMT-6c"/>
       <path d="M 40.578125 0 
L 40.578125 7.625 
Q 34.515625 -1.171875 24.125 -1.171875 
Q 19.53125 -1.171875 15.546875 0.578125 
Q 11.578125 2.34375 9.640625 5 
Q 7.71875 7.671875 6.9375 11.53125 
Q 6.390625 14.109375 6.390625 19.734375 
L 6.390625 51.859375 
L 15.1875 51.859375 
L 15.1875 23.09375 
Q 15.1875 16.21875 15.71875 13.8125 
Q 16.546875 10.359375 19.234375 8.375 
Q 21.921875 6.390625 25.875 6.390625 
Q 29.828125 6.390625 33.296875 8.421875 
Q 36.765625 10.453125 38.203125 13.9375 
Q 39.65625 17.4375 39.65625 24.078125 
L 39.65625 51.859375 
L 48.4375 51.859375 
L 48.4375 0 
z
" id="ArialMT-75"/>
       <path d="M 6.59375 0 
L 6.59375 51.859375 
L 14.453125 51.859375 
L 14.453125 44.578125 
Q 16.890625 48.390625 20.9375 50.703125 
Q 25 53.03125 30.171875 53.03125 
Q 35.9375 53.03125 39.625 50.640625 
Q 43.3125 48.25 44.828125 43.953125 
Q 50.984375 53.03125 60.84375 53.03125 
Q 68.5625 53.03125 72.703125 48.75 
Q 76.859375 44.484375 76.859375 35.59375 
L 76.859375 0 
L 68.109375 0 
L 68.109375 32.671875 
Q 68.109375 37.9375 67.25 40.25 
Q 66.40625 42.578125 64.15625 43.984375 
Q 61.921875 45.40625 58.890625 45.40625 
Q 53.421875 45.40625 49.796875 41.765625 
Q 46.1875 38.140625 46.1875 30.125 
L 46.1875 0 
L 37.40625 0 
L 37.40625 33.6875 
Q 37.40625 39.546875 35.25 42.46875 
Q 33.109375 45.40625 28.21875 45.40625 
Q 24.515625 45.40625 21.359375 43.453125 
Q 18.21875 41.5 16.796875 37.734375 
Q 15.375 33.984375 15.375 26.90625 
L 15.375 0 
z
" id="ArialMT-6d"/>
      </defs>
      <g style="fill:#262626;" transform="translate(202.129375 41.942578)scale(0.13 -0.13)">
       <use xlink:href="#ArialMT-68"/>
       <use x="55.615234" xlink:href="#ArialMT-6f"/>
       <use x="111.230469" xlink:href="#ArialMT-6f"/>
       <use x="166.845703" xlink:href="#ArialMT-6b"/>
       <use x="216.845703" xlink:href="#ArialMT-20"/>
       <use x="244.628906" xlink:href="#ArialMT-73"/>
       <use x="294.628906" xlink:href="#ArialMT-65"/>
       <use x="350.244141" xlink:href="#ArialMT-6e"/>
       <use x="405.859375" xlink:href="#ArialMT-73"/>
       <use x="455.859375" xlink:href="#ArialMT-69"/>
       <use x="478.076172" xlink:href="#ArialMT-6c"/>
       <use x="500.292969" xlink:href="#ArialMT-6c"/>
       <use x="522.509766" xlink:href="#ArialMT-75"/>
       <use x="578.125" xlink:href="#ArialMT-6d"/>
       <use x="661.425781" xlink:href="#ArialMT-20"/>
      </g>
     </g>
    </g>
    <g id="ytick_3">
     <g id="line2d_11"/>
     <g id="text_7">
      <!-- IL2 neuron  -->
      <defs>
       <path d="M 9.328125 0 
L 9.328125 71.578125 
L 18.796875 71.578125 
L 18.796875 0 
z
" id="ArialMT-49"/>
       <path d="M 7.328125 0 
L 7.328125 71.578125 
L 16.796875 71.578125 
L 16.796875 8.453125 
L 52.046875 8.453125 
L 52.046875 0 
z
" id="ArialMT-4c"/>
       <path d="M 6.5 0 
L 6.5 51.859375 
L 14.40625 51.859375 
L 14.40625 44 
Q 17.4375 49.515625 20 51.265625 
Q 22.5625 53.03125 25.640625 53.03125 
Q 30.078125 53.03125 34.671875 50.203125 
L 31.640625 42.046875 
Q 28.421875 43.953125 25.203125 43.953125 
Q 22.3125 43.953125 20.015625 42.21875 
Q 17.71875 40.484375 16.75 37.40625 
Q 15.28125 32.71875 15.28125 27.15625 
L 15.28125 0 
z
" id="ArialMT-72"/>
      </defs>
      <g style="fill:#262626;" transform="translate(225.953906 62.002578)scale(0.13 -0.13)">
       <use xlink:href="#ArialMT-49"/>
       <use x="27.783203" xlink:href="#ArialMT-4c"/>
       <use x="83.398438" xlink:href="#ArialMT-32"/>
       <use x="139.013672" xlink:href="#ArialMT-20"/>
       <use x="166.796875" xlink:href="#ArialMT-6e"/>
       <use x="222.412109" xlink:href="#ArialMT-65"/>
       <use x="278.027344" xlink:href="#ArialMT-75"/>
       <use x="333.642578" xlink:href="#ArialMT-72"/>
       <use x="366.943359" xlink:href="#ArialMT-6f"/>
       <use x="422.558594" xlink:href="#ArialMT-6e"/>
       <use x="478.173828" xlink:href="#ArialMT-20"/>
      </g>
     </g>
    </g>
    <g id="ytick_4">
     <g id="line2d_12"/>
     <g id="text_8">
      <!-- ray  -->
      <defs>
       <path d="M 40.4375 6.390625 
Q 35.546875 2.25 31.03125 0.53125 
Q 26.515625 -1.171875 21.34375 -1.171875 
Q 12.796875 -1.171875 8.203125 3 
Q 3.609375 7.171875 3.609375 13.671875 
Q 3.609375 17.484375 5.34375 20.625 
Q 7.078125 23.78125 9.890625 25.6875 
Q 12.703125 27.59375 16.21875 28.5625 
Q 18.796875 29.25 24.03125 29.890625 
Q 34.671875 31.15625 39.703125 32.90625 
Q 39.75 34.71875 39.75 35.203125 
Q 39.75 40.578125 37.25 42.78125 
Q 33.890625 45.75 27.25 45.75 
Q 21.046875 45.75 18.09375 43.578125 
Q 15.140625 41.40625 13.71875 35.890625 
L 5.125 37.0625 
Q 6.296875 42.578125 8.984375 45.96875 
Q 11.671875 49.359375 16.75 51.1875 
Q 21.828125 53.03125 28.515625 53.03125 
Q 35.15625 53.03125 39.296875 51.46875 
Q 43.453125 49.90625 45.40625 47.53125 
Q 47.359375 45.171875 48.140625 41.546875 
Q 48.578125 39.3125 48.578125 33.453125 
L 48.578125 21.734375 
Q 48.578125 9.46875 49.140625 6.21875 
Q 49.703125 2.984375 51.375 0 
L 42.1875 0 
Q 40.828125 2.734375 40.4375 6.390625 
M 39.703125 26.03125 
Q 34.90625 24.078125 25.34375 22.703125 
Q 19.921875 21.921875 17.671875 20.9375 
Q 15.4375 19.96875 14.203125 18.09375 
Q 12.984375 16.21875 12.984375 13.921875 
Q 12.984375 10.40625 15.640625 8.0625 
Q 18.3125 5.71875 23.4375 5.71875 
Q 28.515625 5.71875 32.46875 7.9375 
Q 36.421875 10.15625 38.28125 14.015625 
Q 39.703125 17 39.703125 22.796875 
z
" id="ArialMT-61"/>
       <path d="M 6.203125 -19.96875 
L 5.21875 -11.71875 
Q 8.109375 -12.5 10.25 -12.5 
Q 13.1875 -12.5 14.9375 -11.515625 
Q 16.703125 -10.546875 17.828125 -8.796875 
Q 18.65625 -7.46875 20.515625 -2.25 
Q 20.75 -1.515625 21.296875 -0.09375 
L 1.609375 51.859375 
L 11.078125 51.859375 
L 21.875 21.828125 
Q 23.96875 16.109375 25.640625 9.8125 
Q 27.15625 15.875 29.25 21.625 
L 40.328125 51.859375 
L 49.125 51.859375 
L 29.390625 -0.875 
Q 26.21875 -9.421875 24.46875 -12.640625 
Q 22.125 -17 19.09375 -19.015625 
Q 16.0625 -21.046875 11.859375 -21.046875 
Q 9.328125 -21.046875 6.203125 -19.96875 
" id="ArialMT-79"/>
      </defs>
      <g style="fill:#262626;" transform="translate(270.052344 81.986406)scale(0.13 -0.13)">
       <use xlink:href="#ArialMT-72"/>
       <use x="33.300781" xlink:href="#ArialMT-61"/>
       <use x="88.916016" xlink:href="#ArialMT-79"/>
       <use x="138.916016" xlink:href="#ArialMT-20"/>
      </g>
     </g>
    </g>
    <g id="ytick_5">
     <g id="line2d_13"/>
     <g id="text_9">
      <!-- inner labial sensillum  -->
      <defs>
       <path d="M 14.703125 0 
L 6.546875 0 
L 6.546875 71.578125 
L 15.328125 71.578125 
L 15.328125 46.046875 
Q 20.90625 53.03125 29.546875 53.03125 
Q 34.328125 53.03125 38.59375 51.09375 
Q 42.875 49.171875 45.625 45.671875 
Q 48.390625 42.1875 49.953125 37.25 
Q 51.515625 32.328125 51.515625 26.703125 
Q 51.515625 13.375 44.921875 6.09375 
Q 38.328125 -1.171875 29.109375 -1.171875 
Q 19.921875 -1.171875 14.703125 6.5 
z
M 14.59375 26.3125 
Q 14.59375 17 17.140625 12.84375 
Q 21.296875 6.0625 28.375 6.0625 
Q 34.125 6.0625 38.328125 11.0625 
Q 42.53125 16.0625 42.53125 25.984375 
Q 42.53125 36.140625 38.5 40.96875 
Q 34.46875 45.796875 28.765625 45.796875 
Q 23 45.796875 18.796875 40.796875 
Q 14.59375 35.796875 14.59375 26.3125 
" id="ArialMT-62"/>
      </defs>
      <g style="fill:#262626;" transform="translate(167.447813 102.122578)scale(0.13 -0.13)">
       <use xlink:href="#ArialMT-69"/>
       <use x="22.216797" xlink:href="#ArialMT-6e"/>
       <use x="77.832031" xlink:href="#ArialMT-6e"/>
       <use x="133.447266" xlink:href="#ArialMT-65"/>
       <use x="189.0625" xlink:href="#ArialMT-72"/>
       <use x="222.363281" xlink:href="#ArialMT-20"/>
       <use x="250.146484" xlink:href="#ArialMT-6c"/>
       <use x="272.363281" xlink:href="#ArialMT-61"/>
       <use x="327.978516" xlink:href="#ArialMT-62"/>
       <use x="383.59375" xlink:href="#ArialMT-69"/>
       <use x="405.810547" xlink:href="#ArialMT-61"/>
       <use x="461.425781" xlink:href="#ArialMT-6c"/>
       <use x="483.642578" xlink:href="#ArialMT-20"/>
       <use x="511.425781" xlink:href="#ArialMT-73"/>
       <use x="561.425781" xlink:href="#ArialMT-65"/>
       <use x="617.041016" xlink:href="#ArialMT-6e"/>
       <use x="672.65625" xlink:href="#ArialMT-73"/>
       <use x="722.65625" xlink:href="#ArialMT-69"/>
       <use x="744.873047" xlink:href="#ArialMT-6c"/>
       <use x="767.089844" xlink:href="#ArialMT-6c"/>
       <use x="789.306641" xlink:href="#ArialMT-75"/>
       <use x="844.921875" xlink:href="#ArialMT-6d"/>
       <use x="928.222656" xlink:href="#ArialMT-20"/>
      </g>
     </g>
    </g>
    <g id="ytick_6">
     <g id="line2d_14"/>
     <g id="text_10">
      <!-- male  -->
      <g style="fill:#262626;" transform="translate(259.934688 122.182578)scale(0.13 -0.13)">
       <use xlink:href="#ArialMT-6d"/>
       <use x="83.300781" xlink:href="#ArialMT-61"/>
       <use x="138.916016" xlink:href="#ArialMT-6c"/>
       <use x="161.132812" xlink:href="#ArialMT-65"/>
       <use x="216.748047" xlink:href="#ArialMT-20"/>
      </g>
     </g>
    </g>
    <g id="ytick_7">
     <g id="line2d_15"/>
     <g id="text_11">
      <!-- BAG  -->
      <defs>
       <path d="M 7.328125 0 
L 7.328125 71.578125 
L 34.1875 71.578125 
Q 42.390625 71.578125 47.34375 69.40625 
Q 52.296875 67.234375 55.09375 62.71875 
Q 57.90625 58.203125 57.90625 53.265625 
Q 57.90625 48.6875 55.421875 44.625 
Q 52.9375 40.578125 47.90625 38.09375 
Q 54.390625 36.1875 57.875 31.59375 
Q 61.375 27 61.375 20.75 
Q 61.375 15.71875 59.25 11.390625 
Q 57.125 7.078125 54 4.734375 
Q 50.875 2.390625 46.15625 1.1875 
Q 41.453125 0 34.625 0 
z
M 16.796875 41.5 
L 32.28125 41.5 
Q 38.578125 41.5 41.3125 42.328125 
Q 44.921875 43.40625 46.75 45.890625 
Q 48.578125 48.390625 48.578125 52.15625 
Q 48.578125 55.71875 46.875 58.421875 
Q 45.171875 61.140625 41.984375 62.140625 
Q 38.8125 63.140625 31.109375 63.140625 
L 16.796875 63.140625 
z
M 16.796875 8.453125 
L 34.625 8.453125 
Q 39.203125 8.453125 41.0625 8.796875 
Q 44.34375 9.375 46.53125 10.734375 
Q 48.734375 12.109375 50.140625 14.71875 
Q 51.5625 17.328125 51.5625 20.75 
Q 51.5625 24.75 49.515625 27.703125 
Q 47.46875 30.671875 43.828125 31.859375 
Q 40.1875 33.0625 33.34375 33.0625 
L 16.796875 33.0625 
z
" id="ArialMT-42"/>
       <path d="M -0.140625 0 
L 27.34375 71.578125 
L 37.546875 71.578125 
L 66.84375 0 
L 56.0625 0 
L 47.703125 21.6875 
L 17.78125 21.6875 
L 9.90625 0 
z
M 20.515625 29.390625 
L 44.78125 29.390625 
L 37.3125 49.21875 
Q 33.890625 58.25 32.234375 64.0625 
Q 30.859375 57.171875 28.375 50.390625 
z
" id="ArialMT-41"/>
       <path d="M 41.21875 28.078125 
L 41.21875 36.46875 
L 71.53125 36.53125 
L 71.53125 9.96875 
Q 64.546875 4.390625 57.125 1.578125 
Q 49.703125 -1.21875 41.890625 -1.21875 
Q 31.34375 -1.21875 22.71875 3.296875 
Q 14.109375 7.8125 9.71875 16.359375 
Q 5.328125 24.90625 5.328125 35.453125 
Q 5.328125 45.90625 9.6875 54.953125 
Q 14.0625 64.015625 22.265625 68.40625 
Q 30.46875 72.796875 41.15625 72.796875 
Q 48.921875 72.796875 55.1875 70.28125 
Q 61.46875 67.78125 65.03125 63.28125 
Q 68.609375 58.796875 70.453125 51.5625 
L 61.921875 49.21875 
Q 60.296875 54.6875 57.90625 57.8125 
Q 55.515625 60.9375 51.0625 62.8125 
Q 46.625 64.703125 41.21875 64.703125 
Q 34.71875 64.703125 29.984375 62.71875 
Q 25.25 60.75 22.34375 57.515625 
Q 19.4375 54.296875 17.828125 50.4375 
Q 15.09375 43.796875 15.09375 36.03125 
Q 15.09375 26.46875 18.390625 20.015625 
Q 21.6875 13.578125 27.984375 10.453125 
Q 34.28125 7.328125 41.359375 7.328125 
Q 47.515625 7.328125 53.375 9.6875 
Q 59.234375 12.0625 62.25 14.75 
L 62.25 28.078125 
z
" id="ArialMT-47"/>
      </defs>
      <g style="fill:#262626;" transform="translate(260.655781 142.242578)scale(0.13 -0.13)">
       <use xlink:href="#ArialMT-42"/>
       <use x="66.699219" xlink:href="#ArialMT-41"/>
       <use x="133.398438" xlink:href="#ArialMT-47"/>
       <use x="211.181641" xlink:href="#ArialMT-20"/>
      </g>
     </g>
    </g>
    <g id="ytick_8">
     <g id="line2d_16"/>
     <g id="text_12">
      <!-- ASK  -->
      <defs>
       <path d="M 4.5 23 
L 13.421875 23.78125 
Q 14.0625 18.40625 16.375 14.96875 
Q 18.703125 11.53125 23.578125 9.40625 
Q 28.46875 7.28125 34.578125 7.28125 
Q 39.984375 7.28125 44.140625 8.890625 
Q 48.296875 10.5 50.3125 13.296875 
Q 52.34375 16.109375 52.34375 19.4375 
Q 52.34375 22.796875 50.390625 25.3125 
Q 48.4375 27.828125 43.953125 29.546875 
Q 41.0625 30.671875 31.203125 33.03125 
Q 21.34375 35.40625 17.390625 37.5 
Q 12.25 40.1875 9.734375 44.15625 
Q 7.234375 48.140625 7.234375 53.078125 
Q 7.234375 58.5 10.296875 63.203125 
Q 13.375 67.921875 19.28125 70.359375 
Q 25.203125 72.796875 32.421875 72.796875 
Q 40.375 72.796875 46.453125 70.234375 
Q 52.546875 67.671875 55.8125 62.6875 
Q 59.078125 57.71875 59.328125 51.421875 
L 50.25 50.734375 
Q 49.515625 57.515625 45.28125 60.984375 
Q 41.0625 64.453125 32.8125 64.453125 
Q 24.21875 64.453125 20.28125 61.296875 
Q 16.359375 58.15625 16.359375 53.71875 
Q 16.359375 49.859375 19.140625 47.359375 
Q 21.875 44.875 33.421875 42.265625 
Q 44.96875 39.65625 49.265625 37.703125 
Q 55.515625 34.8125 58.484375 30.390625 
Q 61.46875 25.984375 61.46875 20.21875 
Q 61.46875 14.5 58.203125 9.4375 
Q 54.9375 4.390625 48.796875 1.578125 
Q 42.671875 -1.21875 35.015625 -1.21875 
Q 25.296875 -1.21875 18.71875 1.609375 
Q 12.15625 4.4375 8.421875 10.125 
Q 4.6875 15.828125 4.5 23 
" id="ArialMT-53"/>
       <path d="M 7.328125 0 
L 7.328125 71.578125 
L 16.796875 71.578125 
L 16.796875 36.078125 
L 52.34375 71.578125 
L 65.1875 71.578125 
L 35.15625 42.578125 
L 66.5 0 
L 54 0 
L 28.515625 36.234375 
L 16.796875 24.8125 
L 16.796875 0 
z
" id="ArialMT-4b"/>
      </defs>
      <g style="fill:#262626;" transform="translate(262.095938 162.302578)scale(0.13 -0.13)">
       <use xlink:href="#ArialMT-41"/>
       <use x="66.699219" xlink:href="#ArialMT-53"/>
       <use x="133.398438" xlink:href="#ArialMT-4b"/>
       <use x="200.097656" xlink:href="#ArialMT-20"/>
      </g>
     </g>
    </g>
    <g id="ytick_9">
     <g id="line2d_17"/>
     <g id="text_13">
      <!-- ASI  -->
      <g style="fill:#262626;" transform="translate(267.155781 182.362578)scale(0.13 -0.13)">
       <use xlink:href="#ArialMT-41"/>
       <use x="66.699219" xlink:href="#ArialMT-53"/>
       <use x="133.398438" xlink:href="#ArialMT-49"/>
       <use x="161.181641" xlink:href="#ArialMT-20"/>
      </g>
     </g>
    </g>
    <g id="ytick_10">
     <g id="line2d_18"/>
     <g id="text_14">
      <!-- ASJ  -->
      <defs>
       <path d="M 2.875 20.3125 
L 11.421875 21.484375 
Q 11.765625 13.28125 14.5 10.25 
Q 17.234375 7.234375 22.078125 7.234375 
Q 25.640625 7.234375 28.21875 8.859375 
Q 30.8125 10.5 31.78125 13.296875 
Q 32.765625 16.109375 32.765625 22.265625 
L 32.765625 71.578125 
L 42.234375 71.578125 
L 42.234375 22.796875 
Q 42.234375 13.8125 40.0625 8.875 
Q 37.890625 3.953125 33.171875 1.359375 
Q 28.46875 -1.21875 22.125 -1.21875 
Q 12.703125 -1.21875 7.6875 4.203125 
Q 2.6875 9.625 2.875 20.3125 
" id="ArialMT-4a"/>
      </defs>
      <g style="fill:#262626;" transform="translate(264.267344 202.422578)scale(0.13 -0.13)">
       <use xlink:href="#ArialMT-41"/>
       <use x="66.699219" xlink:href="#ArialMT-53"/>
       <use x="133.398438" xlink:href="#ArialMT-4a"/>
       <use x="183.398438" xlink:href="#ArialMT-20"/>
      </g>
     </g>
    </g>
    <g id="text_15">
     <!-- tissue -->
     <defs>
      <path d="M 25.78125 7.859375 
L 27.046875 0.09375 
Q 23.34375 -0.6875 20.40625 -0.6875 
Q 15.625 -0.6875 12.984375 0.828125 
Q 10.359375 2.34375 9.28125 4.8125 
Q 8.203125 7.28125 8.203125 15.1875 
L 8.203125 45.015625 
L 1.765625 45.015625 
L 1.765625 51.859375 
L 8.203125 51.859375 
L 8.203125 64.703125 
L 16.9375 69.96875 
L 16.9375 51.859375 
L 25.78125 51.859375 
L 25.78125 45.015625 
L 16.9375 45.015625 
L 16.9375 14.703125 
Q 16.9375 10.9375 17.40625 9.859375 
Q 17.875 8.796875 18.921875 8.15625 
Q 19.96875 7.515625 21.921875 7.515625 
Q 23.390625 7.515625 25.78125 7.859375 
" id="ArialMT-74"/>
     </defs>
     <g style="fill:#262626;" transform="translate(160.466563 127.091406)rotate(-90)scale(0.15 -0.15)">
      <use xlink:href="#ArialMT-74"/>
      <use x="27.783203" xlink:href="#ArialMT-69"/>
      <use x="50" xlink:href="#ArialMT-73"/>
      <use x="100" xlink:href="#ArialMT-73"/>
      <use x="150" xlink:href="#ArialMT-75"/>
      <use x="205.615234" xlink:href="#ArialMT-65"/>
     </g>
    </g>
   </g>
   <g id="patch_3">
    <path clip-path="url(#p9a7180607a)" d="M 298.721719 9.206 
L 548.031243 9.206 
L 548.031243 25.254 
L 298.721719 25.254 
z
" style="fill:#ea96a3;"/>
   </g>
   <g id="patch_4">
    <path clip-path="url(#p9a7180607a)" d="M 298.721719 29.266 
L 548.031243 29.266 
L 548.031243 45.314 
L 298.721719 45.314 
z
" style="fill:#d7944e;"/>
   </g>
   <g id="patch_5">
    <path clip-path="url(#p9a7180607a)" d="M 298.721719 49.326 
L 548.031243 49.326 
L 548.031243 65.374 
L 298.721719 65.374 
z
" style="fill:#ab9e47;"/>
   </g>
   <g id="patch_6">
    <path clip-path="url(#p9a7180607a)" d="M 298.721719 69.386 
L 548.031243 69.386 
L 548.031243 85.434 
L 298.721719 85.434 
z
" style="fill:#7fa946;"/>
   </g>
   <g id="patch_7">
    <path clip-path="url(#p9a7180607a)" d="M 298.721719 89.446 
L 548.031243 89.446 
L 548.031243 105.494 
L 298.721719 105.494 
z
" style="fill:#49ae83;"/>
   </g>
   <g id="patch_8">
    <path clip-path="url(#p9a7180607a)" d="M 298.721719 109.506 
L 537.400771 109.506 
L 537.400771 125.554 
L 298.721719 125.554 
z
" style="fill:#4baba4;"/>
   </g>
   <g id="patch_9">
    <path clip-path="url(#p9a7180607a)" d="M 298.721719 129.566 
L 338.414153 129.566 
L 338.414153 145.614 
L 298.721719 145.614 
z
" style="fill:#50acc3;"/>
   </g>
   <g id="patch_10">
    <path clip-path="url(#p9a7180607a)" d="M 298.721719 149.626 
L 308.183996 149.626 
L 308.183996 165.674 
L 298.721719 165.674 
z
" style="fill:#94aee8;"/>
   </g>
   <g id="patch_11">
    <path clip-path="url(#p9a7180607a)" d="M 298.721719 169.686 
L 304.718219 169.686 
L 304.718219 185.734 
L 298.721719 185.734 
z
" style="fill:#ce9be9;"/>
   </g>
   <g id="patch_12">
    <path clip-path="url(#p9a7180607a)" d="M 298.721719 189.746 
L 303.992378 189.746 
L 303.992378 205.794 
L 298.721719 205.794 
z
" style="fill:#e88fcc;"/>
   </g>
   <g id="line2d_19">
    <path clip-path="url(#p9a7180607a)" d="M 0 0 
" style="fill:none;stroke:#424242;stroke-linecap:round;stroke-width:3.15;"/>
   </g>
   <g id="line2d_20">
    <path clip-path="url(#p9a7180607a)" d="M 0 0 
" style="fill:none;stroke:#424242;stroke-linecap:round;stroke-width:3.15;"/>
   </g>
   <g id="line2d_21">
    <path clip-path="url(#p9a7180607a)" d="M 0 0 
" style="fill:none;stroke:#424242;stroke-linecap:round;stroke-width:3.15;"/>
   </g>
   <g id="line2d_22">
    <path clip-path="url(#p9a7180607a)" d="M 0 0 
" style="fill:none;stroke:#424242;stroke-linecap:round;stroke-width:3.15;"/>
   </g>
   <g id="line2d_23">
    <path clip-path="url(#p9a7180607a)" d="M 0 0 
" style="fill:none;stroke:#424242;stroke-linecap:round;stroke-width:3.15;"/>
   </g>
   <g id="line2d_24">
    <path clip-path="url(#p9a7180607a)" d="M 0 0 
" style="fill:none;stroke:#424242;stroke-linecap:round;stroke-width:3.15;"/>
   </g>
   <g id="line2d_25">
    <path clip-path="url(#p9a7180607a)" d="M 0 0 
" style="fill:none;stroke:#424242;stroke-linecap:round;stroke-width:3.15;"/>
   </g>
   <g id="line2d_26">
    <path clip-path="url(#p9a7180607a)" d="M 0 0 
" style="fill:none;stroke:#424242;stroke-linecap:round;stroke-width:3.15;"/>
   </g>
   <g id="line2d_27">
    <path clip-path="url(#p9a7180607a)" d="M 0 0 
" style="fill:none;stroke:#424242;stroke-linecap:round;stroke-width:3.15;"/>
   </g>
   <g id="line2d_28">
    <path clip-path="url(#p9a7180607a)" d="M 0 0 
" style="fill:none;stroke:#424242;stroke-linecap:round;stroke-width:3.15;"/>
   </g>
   <g id="patch_13">
    <path d="M 298.721719 207.8 
L 298.721719 7.2 
" style="fill:none;"/>
   </g>
   <g id="patch_14">
    <path d="M 560.496719 207.8 
L 560.496719 7.2 
" style="fill:none;"/>
   </g>
   <g id="patch_15">
    <path d="M 298.721719 207.8 
L 560.496719 207.8 
" style="fill:none;"/>
   </g>
   <g id="patch_16">
    <path d="M 298.721719 7.2 
L 560.496719 7.2 
" style="fill:none;"/>
   </g>
  </g>
  <g id="axes_2">
   <g id="patch_17">
    <path d="M 298.721719 438.2 
L 560.496719 438.2 
L 560.496719 237.6 
L 298.721719 237.6 
z
" style="fill:#eaeaf2;"/>
   </g>
   <g id="matplotlib.axis_3">
    <g id="xtick_5">
     <g id="line2d_29">
      <path clip-path="url(#p625649b1ac)" d="M 298.721719 438.2 
L 298.721719 237.6 
" style="fill:none;stroke:#ffffff;stroke-linecap:round;"/>
     </g>
     <g id="line2d_30"/>
     <g id="text_16">
      <!-- 0 -->
      <g style="fill:#262626;" transform="translate(295.107109 454.505156)scale(0.13 -0.13)">
       <use xlink:href="#ArialMT-30"/>
      </g>
     </g>
    </g>
    <g id="xtick_6">
     <g id="line2d_31">
      <path clip-path="url(#p625649b1ac)" d="M 367.257213 438.2 
L 367.257213 237.6 
" style="fill:none;stroke:#ffffff;stroke-linecap:round;"/>
     </g>
     <g id="line2d_32"/>
     <g id="text_17">
      <!-- 2 -->
      <g style="fill:#262626;" transform="translate(363.642604 454.505156)scale(0.13 -0.13)">
       <use xlink:href="#ArialMT-32"/>
      </g>
     </g>
    </g>
    <g id="xtick_7">
     <g id="line2d_33">
      <path clip-path="url(#p625649b1ac)" d="M 435.792707 438.2 
L 435.792707 237.6 
" style="fill:none;stroke:#ffffff;stroke-linecap:round;"/>
     </g>
     <g id="line2d_34"/>
     <g id="text_18">
      <!-- 4 -->
      <g style="fill:#262626;" transform="translate(432.178098 454.505156)scale(0.13 -0.13)">
       <use xlink:href="#ArialMT-34"/>
      </g>
     </g>
    </g>
    <g id="xtick_8">
     <g id="line2d_35">
      <path clip-path="url(#p625649b1ac)" d="M 504.328201 438.2 
L 504.328201 237.6 
" style="fill:none;stroke:#ffffff;stroke-linecap:round;"/>
     </g>
     <g id="line2d_36"/>
     <g id="text_19">
      <!-- 6 -->
      <g style="fill:#262626;" transform="translate(500.713592 454.505156)scale(0.13 -0.13)">
       <use xlink:href="#ArialMT-36"/>
      </g>
     </g>
    </g>
   </g>
   <g id="matplotlib.axis_4">
    <g id="ytick_11">
     <g id="line2d_37"/>
     <g id="text_20">
      <!-- chemosensory behavior variant -->
      <defs>
       <path d="M 40.4375 19 
L 49.078125 17.875 
Q 47.65625 8.9375 41.8125 3.875 
Q 35.984375 -1.171875 27.484375 -1.171875 
Q 16.84375 -1.171875 10.375 5.78125 
Q 3.90625 12.75 3.90625 25.734375 
Q 3.90625 34.125 6.6875 40.421875 
Q 9.46875 46.734375 15.15625 49.875 
Q 20.84375 53.03125 27.546875 53.03125 
Q 35.984375 53.03125 41.359375 48.75 
Q 46.734375 44.484375 48.25 36.625 
L 39.703125 35.296875 
Q 38.484375 40.53125 35.375 43.15625 
Q 32.28125 45.796875 27.875 45.796875 
Q 21.234375 45.796875 17.078125 41.03125 
Q 12.9375 36.28125 12.9375 25.984375 
Q 12.9375 15.53125 16.9375 10.796875 
Q 20.953125 6.0625 27.390625 6.0625 
Q 32.5625 6.0625 36.03125 9.234375 
Q 39.5 12.40625 40.4375 19 
" id="ArialMT-63"/>
       <path d="M 21 0 
L 1.265625 51.859375 
L 10.546875 51.859375 
L 21.6875 20.796875 
Q 23.484375 15.765625 25 10.359375 
Q 26.171875 14.453125 28.265625 20.21875 
L 39.796875 51.859375 
L 48.828125 51.859375 
L 29.203125 0 
z
" id="ArialMT-76"/>
      </defs>
      <g style="fill:#262626;" transform="translate(111.086719 252.282578)scale(0.13 -0.13)">
       <use xlink:href="#ArialMT-63"/>
       <use x="50" xlink:href="#ArialMT-68"/>
       <use x="105.615234" xlink:href="#ArialMT-65"/>
       <use x="161.230469" xlink:href="#ArialMT-6d"/>
       <use x="244.53125" xlink:href="#ArialMT-6f"/>
       <use x="300.146484" xlink:href="#ArialMT-73"/>
       <use x="350.146484" xlink:href="#ArialMT-65"/>
       <use x="405.761719" xlink:href="#ArialMT-6e"/>
       <use x="461.376953" xlink:href="#ArialMT-73"/>
       <use x="511.376953" xlink:href="#ArialMT-6f"/>
       <use x="566.992188" xlink:href="#ArialMT-72"/>
       <use x="600.292969" xlink:href="#ArialMT-79"/>
       <use x="650.292969" xlink:href="#ArialMT-20"/>
       <use x="678.076172" xlink:href="#ArialMT-62"/>
       <use x="733.691406" xlink:href="#ArialMT-65"/>
       <use x="789.306641" xlink:href="#ArialMT-68"/>
       <use x="844.921875" xlink:href="#ArialMT-61"/>
       <use x="900.537109" xlink:href="#ArialMT-76"/>
       <use x="950.537109" xlink:href="#ArialMT-69"/>
       <use x="972.753906" xlink:href="#ArialMT-6f"/>
       <use x="1028.369141" xlink:href="#ArialMT-72"/>
       <use x="1061.669922" xlink:href="#ArialMT-20"/>
       <use x="1089.453125" xlink:href="#ArialMT-76"/>
       <use x="1139.453125" xlink:href="#ArialMT-61"/>
       <use x="1195.068359" xlink:href="#ArialMT-72"/>
       <use x="1228.369141" xlink:href="#ArialMT-69"/>
       <use x="1250.585938" xlink:href="#ArialMT-61"/>
       <use x="1306.201172" xlink:href="#ArialMT-6e"/>
       <use x="1361.816406" xlink:href="#ArialMT-74"/>
      </g>
     </g>
    </g>
    <g id="ytick_12">
     <g id="line2d_38"/>
     <g id="text_21">
      <!-- velocity of movement variant -->
      <defs>
       <path d="M 8.6875 0 
L 8.6875 45.015625 
L 0.921875 45.015625 
L 0.921875 51.859375 
L 8.6875 51.859375 
L 8.6875 57.375 
Q 8.6875 62.59375 9.625 65.140625 
Q 10.890625 68.5625 14.078125 70.671875 
Q 17.28125 72.796875 23.046875 72.796875 
Q 26.765625 72.796875 31.25 71.921875 
L 29.9375 64.265625 
Q 27.203125 64.75 24.75 64.75 
Q 20.75 64.75 19.09375 63.03125 
Q 17.4375 61.328125 17.4375 56.640625 
L 17.4375 51.859375 
L 27.546875 51.859375 
L 27.546875 45.015625 
L 17.4375 45.015625 
L 17.4375 0 
z
" id="ArialMT-66"/>
      </defs>
      <g style="fill:#262626;" transform="translate(126.9975 272.421797)scale(0.13 -0.13)">
       <use xlink:href="#ArialMT-76"/>
       <use x="50" xlink:href="#ArialMT-65"/>
       <use x="105.615234" xlink:href="#ArialMT-6c"/>
       <use x="127.832031" xlink:href="#ArialMT-6f"/>
       <use x="183.447266" xlink:href="#ArialMT-63"/>
       <use x="233.447266" xlink:href="#ArialMT-69"/>
       <use x="255.664062" xlink:href="#ArialMT-74"/>
       <use x="283.447266" xlink:href="#ArialMT-79"/>
       <use x="333.447266" xlink:href="#ArialMT-20"/>
       <use x="361.230469" xlink:href="#ArialMT-6f"/>
       <use x="416.845703" xlink:href="#ArialMT-66"/>
       <use x="444.628906" xlink:href="#ArialMT-20"/>
       <use x="472.412109" xlink:href="#ArialMT-6d"/>
       <use x="555.712891" xlink:href="#ArialMT-6f"/>
       <use x="611.328125" xlink:href="#ArialMT-76"/>
       <use x="661.328125" xlink:href="#ArialMT-65"/>
       <use x="716.943359" xlink:href="#ArialMT-6d"/>
       <use x="800.244141" xlink:href="#ArialMT-65"/>
       <use x="855.859375" xlink:href="#ArialMT-6e"/>
       <use x="911.474609" xlink:href="#ArialMT-74"/>
       <use x="939.257812" xlink:href="#ArialMT-20"/>
       <use x="967.041016" xlink:href="#ArialMT-76"/>
       <use x="1017.041016" xlink:href="#ArialMT-61"/>
       <use x="1072.65625" xlink:href="#ArialMT-72"/>
       <use x="1105.957031" xlink:href="#ArialMT-69"/>
       <use x="1128.173828" xlink:href="#ArialMT-61"/>
       <use x="1183.789062" xlink:href="#ArialMT-6e"/>
       <use x="1239.404297" xlink:href="#ArialMT-74"/>
      </g>
     </g>
    </g>
    <g id="ytick_13">
     <g id="line2d_39"/>
     <g id="text_22">
      <!-- turning variant -->
      <defs>
       <path d="M 4.984375 -4.296875 
L 13.53125 -5.5625 
Q 14.0625 -9.515625 16.5 -11.328125 
Q 19.78125 -13.765625 25.4375 -13.765625 
Q 31.546875 -13.765625 34.859375 -11.328125 
Q 38.1875 -8.890625 39.359375 -4.5 
Q 40.046875 -1.8125 39.984375 6.78125 
Q 34.234375 0 25.640625 0 
Q 14.9375 0 9.078125 7.71875 
Q 3.21875 15.4375 3.21875 26.21875 
Q 3.21875 33.640625 5.90625 39.90625 
Q 8.59375 46.1875 13.6875 49.609375 
Q 18.796875 53.03125 25.6875 53.03125 
Q 34.859375 53.03125 40.828125 45.609375 
L 40.828125 51.859375 
L 48.921875 51.859375 
L 48.921875 7.03125 
Q 48.921875 -5.078125 46.453125 -10.125 
Q 44 -15.1875 38.640625 -18.109375 
Q 33.296875 -21.046875 25.484375 -21.046875 
Q 16.21875 -21.046875 10.5 -16.875 
Q 4.78125 -12.703125 4.984375 -4.296875 
M 12.25 26.859375 
Q 12.25 16.65625 16.296875 11.96875 
Q 20.359375 7.28125 26.46875 7.28125 
Q 32.515625 7.28125 36.609375 11.9375 
Q 40.71875 16.609375 40.71875 26.5625 
Q 40.71875 36.078125 36.5 40.90625 
Q 32.28125 45.75 26.3125 45.75 
Q 20.453125 45.75 16.34375 40.984375 
Q 12.25 36.234375 12.25 26.859375 
" id="ArialMT-67"/>
      </defs>
      <g style="fill:#262626;" transform="translate(209.348438 292.402578)scale(0.13 -0.13)">
       <use xlink:href="#ArialMT-74"/>
       <use x="27.783203" xlink:href="#ArialMT-75"/>
       <use x="83.398438" xlink:href="#ArialMT-72"/>
       <use x="116.699219" xlink:href="#ArialMT-6e"/>
       <use x="172.314453" xlink:href="#ArialMT-69"/>
       <use x="194.53125" xlink:href="#ArialMT-6e"/>
       <use x="250.146484" xlink:href="#ArialMT-67"/>
       <use x="305.761719" xlink:href="#ArialMT-20"/>
       <use x="333.544922" xlink:href="#ArialMT-76"/>
       <use x="383.544922" xlink:href="#ArialMT-61"/>
       <use x="439.160156" xlink:href="#ArialMT-72"/>
       <use x="472.460938" xlink:href="#ArialMT-69"/>
       <use x="494.677734" xlink:href="#ArialMT-61"/>
       <use x="550.292969" xlink:href="#ArialMT-6e"/>
       <use x="605.908203" xlink:href="#ArialMT-74"/>
      </g>
     </g>
    </g>
    <g id="ytick_14">
     <g id="line2d_40"/>
     <g id="text_23">
      <!-- reversal variant -->
      <g style="fill:#262626;" transform="translate(202.860625 312.462578)scale(0.13 -0.13)">
       <use xlink:href="#ArialMT-72"/>
       <use x="33.300781" xlink:href="#ArialMT-65"/>
       <use x="88.916016" xlink:href="#ArialMT-76"/>
       <use x="138.916016" xlink:href="#ArialMT-65"/>
       <use x="194.53125" xlink:href="#ArialMT-72"/>
       <use x="227.832031" xlink:href="#ArialMT-73"/>
       <use x="277.832031" xlink:href="#ArialMT-61"/>
       <use x="333.447266" xlink:href="#ArialMT-6c"/>
       <use x="355.664062" xlink:href="#ArialMT-20"/>
       <use x="383.447266" xlink:href="#ArialMT-76"/>
       <use x="433.447266" xlink:href="#ArialMT-61"/>
       <use x="489.0625" xlink:href="#ArialMT-72"/>
       <use x="522.363281" xlink:href="#ArialMT-69"/>
       <use x="544.580078" xlink:href="#ArialMT-61"/>
       <use x="600.195312" xlink:href="#ArialMT-6e"/>
       <use x="655.810547" xlink:href="#ArialMT-74"/>
      </g>
     </g>
    </g>
    <g id="ytick_15">
     <g id="line2d_41"/>
     <g id="text_24">
      <!-- acetylcholinesterase inhibitor response variant -->
      <defs>
       <path d="M 6.59375 -19.875 
L 6.59375 51.859375 
L 14.59375 51.859375 
L 14.59375 45.125 
Q 17.4375 49.078125 21 51.046875 
Q 24.5625 53.03125 29.640625 53.03125 
Q 36.28125 53.03125 41.359375 49.609375 
Q 46.4375 46.1875 49.015625 39.953125 
Q 51.609375 33.734375 51.609375 26.3125 
Q 51.609375 18.359375 48.75 11.984375 
Q 45.90625 5.609375 40.453125 2.21875 
Q 35.015625 -1.171875 29 -1.171875 
Q 24.609375 -1.171875 21.109375 0.6875 
Q 17.625 2.546875 15.375 5.375 
L 15.375 -19.875 
z
M 14.546875 25.640625 
Q 14.546875 15.625 18.59375 10.84375 
Q 22.65625 6.0625 28.421875 6.0625 
Q 34.28125 6.0625 38.453125 11.015625 
Q 42.625 15.96875 42.625 26.375 
Q 42.625 36.28125 38.546875 41.203125 
Q 34.46875 46.140625 28.8125 46.140625 
Q 23.1875 46.140625 18.859375 40.890625 
Q 14.546875 35.640625 14.546875 25.640625 
" id="ArialMT-70"/>
      </defs>
      <g style="fill:#262626;" transform="translate(25.09375 332.522578)scale(0.13 -0.13)">
       <use xlink:href="#ArialMT-61"/>
       <use x="55.615234" xlink:href="#ArialMT-63"/>
       <use x="105.615234" xlink:href="#ArialMT-65"/>
       <use x="161.230469" xlink:href="#ArialMT-74"/>
       <use x="189.013672" xlink:href="#ArialMT-79"/>
       <use x="239.013672" xlink:href="#ArialMT-6c"/>
       <use x="261.230469" xlink:href="#ArialMT-63"/>
       <use x="311.230469" xlink:href="#ArialMT-68"/>
       <use x="366.845703" xlink:href="#ArialMT-6f"/>
       <use x="422.460938" xlink:href="#ArialMT-6c"/>
       <use x="444.677734" xlink:href="#ArialMT-69"/>
       <use x="466.894531" xlink:href="#ArialMT-6e"/>
       <use x="522.509766" xlink:href="#ArialMT-65"/>
       <use x="578.125" xlink:href="#ArialMT-73"/>
       <use x="628.125" xlink:href="#ArialMT-74"/>
       <use x="655.908203" xlink:href="#ArialMT-65"/>
       <use x="711.523438" xlink:href="#ArialMT-72"/>
       <use x="744.824219" xlink:href="#ArialMT-61"/>
       <use x="800.439453" xlink:href="#ArialMT-73"/>
       <use x="850.439453" xlink:href="#ArialMT-65"/>
       <use x="906.054688" xlink:href="#ArialMT-20"/>
       <use x="933.837891" xlink:href="#ArialMT-69"/>
       <use x="956.054688" xlink:href="#ArialMT-6e"/>
       <use x="1011.669922" xlink:href="#ArialMT-68"/>
       <use x="1067.285156" xlink:href="#ArialMT-69"/>
       <use x="1089.501953" xlink:href="#ArialMT-62"/>
       <use x="1145.117188" xlink:href="#ArialMT-69"/>
       <use x="1167.333984" xlink:href="#ArialMT-74"/>
       <use x="1195.117188" xlink:href="#ArialMT-6f"/>
       <use x="1250.732422" xlink:href="#ArialMT-72"/>
       <use x="1284.033203" xlink:href="#ArialMT-20"/>
       <use x="1311.816406" xlink:href="#ArialMT-72"/>
       <use x="1345.117188" xlink:href="#ArialMT-65"/>
       <use x="1400.732422" xlink:href="#ArialMT-73"/>
       <use x="1450.732422" xlink:href="#ArialMT-70"/>
       <use x="1506.347656" xlink:href="#ArialMT-6f"/>
       <use x="1561.962891" xlink:href="#ArialMT-6e"/>
       <use x="1617.578125" xlink:href="#ArialMT-73"/>
       <use x="1667.578125" xlink:href="#ArialMT-65"/>
       <use x="1723.193359" xlink:href="#ArialMT-20"/>
       <use x="1750.976562" xlink:href="#ArialMT-76"/>
       <use x="1800.976562" xlink:href="#ArialMT-61"/>
       <use x="1856.591797" xlink:href="#ArialMT-72"/>
       <use x="1889.892578" xlink:href="#ArialMT-69"/>
       <use x="1912.109375" xlink:href="#ArialMT-61"/>
       <use x="1967.724609" xlink:href="#ArialMT-6e"/>
       <use x="2023.339844" xlink:href="#ArialMT-74"/>
      </g>
     </g>
    </g>
    <g id="ytick_16">
     <g id="line2d_42"/>
     <g id="text_25">
      <!-- sinusoidal movement variant -->
      <defs>
       <path d="M 40.234375 0 
L 40.234375 6.546875 
Q 35.296875 -1.171875 25.734375 -1.171875 
Q 19.53125 -1.171875 14.328125 2.25 
Q 9.125 5.671875 6.265625 11.796875 
Q 3.421875 17.921875 3.421875 25.875 
Q 3.421875 33.640625 6 39.96875 
Q 8.59375 46.296875 13.765625 49.65625 
Q 18.953125 53.03125 25.34375 53.03125 
Q 30.03125 53.03125 33.6875 51.046875 
Q 37.359375 49.078125 39.65625 45.90625 
L 39.65625 71.578125 
L 48.390625 71.578125 
L 48.390625 0 
z
M 12.453125 25.875 
Q 12.453125 15.921875 16.640625 10.984375 
Q 20.84375 6.0625 26.5625 6.0625 
Q 32.328125 6.0625 36.34375 10.765625 
Q 40.375 15.484375 40.375 25.140625 
Q 40.375 35.796875 36.265625 40.765625 
Q 32.171875 45.75 26.171875 45.75 
Q 20.3125 45.75 16.375 40.96875 
Q 12.453125 36.1875 12.453125 25.875 
" id="ArialMT-64"/>
      </defs>
      <g style="fill:#262626;" transform="translate(126.985313 352.582578)scale(0.13 -0.13)">
       <use xlink:href="#ArialMT-73"/>
       <use x="50" xlink:href="#ArialMT-69"/>
       <use x="72.216797" xlink:href="#ArialMT-6e"/>
       <use x="127.832031" xlink:href="#ArialMT-75"/>
       <use x="183.447266" xlink:href="#ArialMT-73"/>
       <use x="233.447266" xlink:href="#ArialMT-6f"/>
       <use x="289.0625" xlink:href="#ArialMT-69"/>
       <use x="311.279297" xlink:href="#ArialMT-64"/>
       <use x="366.894531" xlink:href="#ArialMT-61"/>
       <use x="422.509766" xlink:href="#ArialMT-6c"/>
       <use x="444.726562" xlink:href="#ArialMT-20"/>
       <use x="472.509766" xlink:href="#ArialMT-6d"/>
       <use x="555.810547" xlink:href="#ArialMT-6f"/>
       <use x="611.425781" xlink:href="#ArialMT-76"/>
       <use x="661.425781" xlink:href="#ArialMT-65"/>
       <use x="717.041016" xlink:href="#ArialMT-6d"/>
       <use x="800.341797" xlink:href="#ArialMT-65"/>
       <use x="855.957031" xlink:href="#ArialMT-6e"/>
       <use x="911.572266" xlink:href="#ArialMT-74"/>
       <use x="939.355469" xlink:href="#ArialMT-20"/>
       <use x="967.138672" xlink:href="#ArialMT-76"/>
       <use x="1017.138672" xlink:href="#ArialMT-61"/>
       <use x="1072.753906" xlink:href="#ArialMT-72"/>
       <use x="1106.054688" xlink:href="#ArialMT-69"/>
       <use x="1128.271484" xlink:href="#ArialMT-61"/>
       <use x="1183.886719" xlink:href="#ArialMT-6e"/>
       <use x="1239.501953" xlink:href="#ArialMT-74"/>
      </g>
     </g>
    </g>
    <g id="ytick_17">
     <g id="line2d_43"/>
     <g id="text_26">
      <!-- forward point velocity increased -->
      <defs>
       <path d="M 16.15625 0 
L 0.296875 51.859375 
L 9.375 51.859375 
L 17.625 21.921875 
L 20.703125 10.796875 
Q 20.90625 11.625 23.390625 21.484375 
L 31.640625 51.859375 
L 40.671875 51.859375 
L 48.4375 21.78125 
L 51.03125 11.859375 
L 54 21.875 
L 62.890625 51.859375 
L 71.4375 51.859375 
L 55.21875 0 
L 46.09375 0 
L 37.84375 31.0625 
L 35.84375 39.890625 
L 25.34375 0 
z
" id="ArialMT-77"/>
      </defs>
      <g style="fill:#262626;" transform="translate(109.644531 372.721797)scale(0.13 -0.13)">
       <use xlink:href="#ArialMT-66"/>
       <use x="27.783203" xlink:href="#ArialMT-6f"/>
       <use x="83.398438" xlink:href="#ArialMT-72"/>
       <use x="116.699219" xlink:href="#ArialMT-77"/>
       <use x="188.916016" xlink:href="#ArialMT-61"/>
       <use x="244.53125" xlink:href="#ArialMT-72"/>
       <use x="277.832031" xlink:href="#ArialMT-64"/>
       <use x="333.447266" xlink:href="#ArialMT-20"/>
       <use x="361.230469" xlink:href="#ArialMT-70"/>
       <use x="416.845703" xlink:href="#ArialMT-6f"/>
       <use x="472.460938" xlink:href="#ArialMT-69"/>
       <use x="494.677734" xlink:href="#ArialMT-6e"/>
       <use x="550.292969" xlink:href="#ArialMT-74"/>
       <use x="578.076172" xlink:href="#ArialMT-20"/>
       <use x="605.859375" xlink:href="#ArialMT-76"/>
       <use x="655.859375" xlink:href="#ArialMT-65"/>
       <use x="711.474609" xlink:href="#ArialMT-6c"/>
       <use x="733.691406" xlink:href="#ArialMT-6f"/>
       <use x="789.306641" xlink:href="#ArialMT-63"/>
       <use x="839.306641" xlink:href="#ArialMT-69"/>
       <use x="861.523438" xlink:href="#ArialMT-74"/>
       <use x="889.306641" xlink:href="#ArialMT-79"/>
       <use x="939.306641" xlink:href="#ArialMT-20"/>
       <use x="967.089844" xlink:href="#ArialMT-69"/>
       <use x="989.306641" xlink:href="#ArialMT-6e"/>
       <use x="1044.921875" xlink:href="#ArialMT-63"/>
       <use x="1094.921875" xlink:href="#ArialMT-72"/>
       <use x="1128.222656" xlink:href="#ArialMT-65"/>
       <use x="1183.837891" xlink:href="#ArialMT-61"/>
       <use x="1239.453125" xlink:href="#ArialMT-73"/>
       <use x="1289.453125" xlink:href="#ArialMT-65"/>
       <use x="1345.068359" xlink:href="#ArialMT-64"/>
      </g>
     </g>
    </g>
    <g id="ytick_18">
     <g id="line2d_44"/>
     <g id="text_27">
      <!-- foraging hyperactive -->
      <g style="fill:#262626;" transform="translate(174.660781 392.781797)scale(0.13 -0.13)">
       <use xlink:href="#ArialMT-66"/>
       <use x="27.783203" xlink:href="#ArialMT-6f"/>
       <use x="83.398438" xlink:href="#ArialMT-72"/>
       <use x="116.699219" xlink:href="#ArialMT-61"/>
       <use x="172.314453" xlink:href="#ArialMT-67"/>
       <use x="227.929688" xlink:href="#ArialMT-69"/>
       <use x="250.146484" xlink:href="#ArialMT-6e"/>
       <use x="305.761719" xlink:href="#ArialMT-67"/>
       <use x="361.376953" xlink:href="#ArialMT-20"/>
       <use x="389.160156" xlink:href="#ArialMT-68"/>
       <use x="444.775391" xlink:href="#ArialMT-79"/>
       <use x="494.775391" xlink:href="#ArialMT-70"/>
       <use x="550.390625" xlink:href="#ArialMT-65"/>
       <use x="606.005859" xlink:href="#ArialMT-72"/>
       <use x="639.306641" xlink:href="#ArialMT-61"/>
       <use x="694.921875" xlink:href="#ArialMT-63"/>
       <use x="744.921875" xlink:href="#ArialMT-74"/>
       <use x="772.705078" xlink:href="#ArialMT-69"/>
       <use x="794.921875" xlink:href="#ArialMT-76"/>
       <use x="844.921875" xlink:href="#ArialMT-65"/>
      </g>
     </g>
    </g>
    <g id="ytick_19">
     <g id="line2d_45"/>
     <g id="text_28">
      <!-- backward point velocity increased -->
      <g style="fill:#262626;" transform="translate(97.355469 412.762578)scale(0.13 -0.13)">
       <use xlink:href="#ArialMT-62"/>
       <use x="55.615234" xlink:href="#ArialMT-61"/>
       <use x="111.230469" xlink:href="#ArialMT-63"/>
       <use x="161.230469" xlink:href="#ArialMT-6b"/>
       <use x="211.230469" xlink:href="#ArialMT-77"/>
       <use x="283.447266" xlink:href="#ArialMT-61"/>
       <use x="339.0625" xlink:href="#ArialMT-72"/>
       <use x="372.363281" xlink:href="#ArialMT-64"/>
       <use x="427.978516" xlink:href="#ArialMT-20"/>
       <use x="455.761719" xlink:href="#ArialMT-70"/>
       <use x="511.376953" xlink:href="#ArialMT-6f"/>
       <use x="566.992188" xlink:href="#ArialMT-69"/>
       <use x="589.208984" xlink:href="#ArialMT-6e"/>
       <use x="644.824219" xlink:href="#ArialMT-74"/>
       <use x="672.607422" xlink:href="#ArialMT-20"/>
       <use x="700.390625" xlink:href="#ArialMT-76"/>
       <use x="750.390625" xlink:href="#ArialMT-65"/>
       <use x="806.005859" xlink:href="#ArialMT-6c"/>
       <use x="828.222656" xlink:href="#ArialMT-6f"/>
       <use x="883.837891" xlink:href="#ArialMT-63"/>
       <use x="933.837891" xlink:href="#ArialMT-69"/>
       <use x="956.054688" xlink:href="#ArialMT-74"/>
       <use x="983.837891" xlink:href="#ArialMT-79"/>
       <use x="1033.837891" xlink:href="#ArialMT-20"/>
       <use x="1061.621094" xlink:href="#ArialMT-69"/>
       <use x="1083.837891" xlink:href="#ArialMT-6e"/>
       <use x="1139.453125" xlink:href="#ArialMT-63"/>
       <use x="1189.453125" xlink:href="#ArialMT-72"/>
       <use x="1222.753906" xlink:href="#ArialMT-65"/>
       <use x="1278.369141" xlink:href="#ArialMT-61"/>
       <use x="1333.984375" xlink:href="#ArialMT-73"/>
       <use x="1383.984375" xlink:href="#ArialMT-65"/>
       <use x="1439.599609" xlink:href="#ArialMT-64"/>
      </g>
     </g>
    </g>
    <g id="ytick_20">
     <g id="line2d_46"/>
     <g id="text_29">
      <!-- foraging reduced -->
      <g style="fill:#262626;" transform="translate(194.160781 432.901797)scale(0.13 -0.13)">
       <use xlink:href="#ArialMT-66"/>
       <use x="27.783203" xlink:href="#ArialMT-6f"/>
       <use x="83.398438" xlink:href="#ArialMT-72"/>
       <use x="116.699219" xlink:href="#ArialMT-61"/>
       <use x="172.314453" xlink:href="#ArialMT-67"/>
       <use x="227.929688" xlink:href="#ArialMT-69"/>
       <use x="250.146484" xlink:href="#ArialMT-6e"/>
       <use x="305.761719" xlink:href="#ArialMT-67"/>
       <use x="361.376953" xlink:href="#ArialMT-20"/>
       <use x="389.160156" xlink:href="#ArialMT-72"/>
       <use x="422.460938" xlink:href="#ArialMT-65"/>
       <use x="478.076172" xlink:href="#ArialMT-64"/>
       <use x="533.691406" xlink:href="#ArialMT-75"/>
       <use x="589.306641" xlink:href="#ArialMT-63"/>
       <use x="639.306641" xlink:href="#ArialMT-65"/>
       <use x="694.921875" xlink:href="#ArialMT-64"/>
      </g>
     </g>
    </g>
    <g id="text_30">
     <!-- phenotype -->
     <g style="fill:#262626;" transform="translate(17.936719 372.928516)rotate(-90)scale(0.15 -0.15)">
      <use xlink:href="#ArialMT-70"/>
      <use x="55.615234" xlink:href="#ArialMT-68"/>
      <use x="111.230469" xlink:href="#ArialMT-65"/>
      <use x="166.845703" xlink:href="#ArialMT-6e"/>
      <use x="222.460938" xlink:href="#ArialMT-6f"/>
      <use x="278.076172" xlink:href="#ArialMT-74"/>
      <use x="305.859375" xlink:href="#ArialMT-79"/>
      <use x="355.859375" xlink:href="#ArialMT-70"/>
      <use x="411.474609" xlink:href="#ArialMT-65"/>
     </g>
    </g>
   </g>
   <g id="patch_18">
    <path clip-path="url(#p625649b1ac)" d="M 298.721719 239.606 
L 548.031243 239.606 
L 548.031243 255.654 
L 298.721719 255.654 
z
" style="fill:#ea96a3;"/>
   </g>
   <g id="patch_19">
    <path clip-path="url(#p625649b1ac)" d="M 298.721719 259.666 
L 537.15211 259.666 
L 537.15211 275.714 
L 298.721719 275.714 
z
" style="fill:#d7944e;"/>
   </g>
   <g id="patch_20">
    <path clip-path="url(#p625649b1ac)" d="M 298.721719 279.726 
L 533.992976 279.726 
L 533.992976 295.774 
L 298.721719 295.774 
z
" style="fill:#ab9e47;"/>
   </g>
   <g id="patch_21">
    <path clip-path="url(#p625649b1ac)" d="M 298.721719 299.786 
L 526.884822 299.786 
L 526.884822 315.834 
L 298.721719 315.834 
z
" style="fill:#7fa946;"/>
   </g>
   <g id="patch_22">
    <path clip-path="url(#p625649b1ac)" d="M 298.721719 319.846 
L 500.266926 319.846 
L 500.266926 335.894 
L 298.721719 335.894 
z
" style="fill:#49ae83;"/>
   </g>
   <g id="patch_23">
    <path clip-path="url(#p625649b1ac)" d="M 298.721719 339.906 
L 500.266926 339.906 
L 500.266926 355.954 
L 298.721719 355.954 
z
" style="fill:#4baba4;"/>
   </g>
   <g id="patch_24">
    <path clip-path="url(#p625649b1ac)" d="M 298.721719 359.966 
L 486.100502 359.966 
L 486.100502 376.014 
L 298.721719 376.014 
z
" style="fill:#50acc3;"/>
   </g>
   <g id="patch_25">
    <path clip-path="url(#p625649b1ac)" d="M 298.721719 380.026 
L 486.100502 380.026 
L 486.100502 396.074 
L 298.721719 396.074 
z
" style="fill:#94aee8;"/>
   </g>
   <g id="patch_26">
    <path clip-path="url(#p625649b1ac)" d="M 298.721719 400.086 
L 474.18989 400.086 
L 474.18989 416.134 
L 298.721719 416.134 
z
" style="fill:#ce9be9;"/>
   </g>
   <g id="patch_27">
    <path clip-path="url(#p625649b1ac)" d="M 298.721719 420.146 
L 465.42363 420.146 
L 465.42363 436.194 
L 298.721719 436.194 
z
" style="fill:#e88fcc;"/>
   </g>
   <g id="line2d_47">
    <path clip-path="url(#p625649b1ac)" d="M 0 0 
" style="fill:none;stroke:#424242;stroke-linecap:round;stroke-width:3.15;"/>
   </g>
   <g id="line2d_48">
    <path clip-path="url(#p625649b1ac)" d="M 0 0 
" style="fill:none;stroke:#424242;stroke-linecap:round;stroke-width:3.15;"/>
   </g>
   <g id="line2d_49">
    <path clip-path="url(#p625649b1ac)" d="M 0 0 
" style="fill:none;stroke:#424242;stroke-linecap:round;stroke-width:3.15;"/>
   </g>
   <g id="line2d_50">
    <path clip-path="url(#p625649b1ac)" d="M 0 0 
" style="fill:none;stroke:#424242;stroke-linecap:round;stroke-width:3.15;"/>
   </g>
   <g id="line2d_51">
    <path clip-path="url(#p625649b1ac)" d="M 0 0 
" style="fill:none;stroke:#424242;stroke-linecap:round;stroke-width:3.15;"/>
   </g>
   <g id="line2d_52">
    <path clip-path="url(#p625649b1ac)" d="M 0 0 
" style="fill:none;stroke:#424242;stroke-linecap:round;stroke-width:3.15;"/>
   </g>
   <g id="line2d_53">
    <path clip-path="url(#p625649b1ac)" d="M 0 0 
" style="fill:none;stroke:#424242;stroke-linecap:round;stroke-width:3.15;"/>
   </g>
   <g id="line2d_54">
    <path clip-path="url(#p625649b1ac)" d="M 0 0 
" style="fill:none;stroke:#424242;stroke-linecap:round;stroke-width:3.15;"/>
   </g>
   <g id="line2d_55">
    <path clip-path="url(#p625649b1ac)" d="M 0 0 
" style="fill:none;stroke:#424242;stroke-linecap:round;stroke-width:3.15;"/>
   </g>
   <g id="line2d_56">
    <path clip-path="url(#p625649b1ac)" d="M 0 0 
" style="fill:none;stroke:#424242;stroke-linecap:round;stroke-width:3.15;"/>
   </g>
   <g id="patch_28">
    <path d="M 298.721719 438.2 
L 298.721719 237.6 
" style="fill:none;"/>
   </g>
   <g id="patch_29">
    <path d="M 560.496719 438.2 
L 560.496719 237.6 
" style="fill:none;"/>
   </g>
   <g id="patch_30">
    <path d="M 298.721719 438.2 
L 560.496719 438.2 
" style="fill:none;"/>
   </g>
   <g id="patch_31">
    <path d="M 298.721719 237.6 
L 560.496719 237.6 
" style="fill:none;"/>
   </g>
  </g>
  <g id="axes_3">
   <g id="patch_32">
    <path d="M 298.721719 668.6 
L 560.496719 668.6 
L 560.496719 468 
L 298.721719 468 
z
" style="fill:#eaeaf2;"/>
   </g>
   <g id="matplotlib.axis_5">
    <g id="xtick_9">
     <g id="line2d_57">
      <path clip-path="url(#p9f3dd7db7d)" d="M 298.721719 668.6 
L 298.721719 468 
" style="fill:none;stroke:#ffffff;stroke-linecap:round;"/>
     </g>
     <g id="line2d_58"/>
     <g id="text_31">
      <!-- 0 -->
      <g style="fill:#262626;" transform="translate(295.107109 684.905156)scale(0.13 -0.13)">
       <use xlink:href="#ArialMT-30"/>
      </g>
     </g>
    </g>
    <g id="xtick_10">
     <g id="line2d_59">
      <path clip-path="url(#p9f3dd7db7d)" d="M 370.633312 668.6 
L 370.633312 468 
" style="fill:none;stroke:#ffffff;stroke-linecap:round;"/>
     </g>
     <g id="line2d_60"/>
     <g id="text_32">
      <!-- 10 -->
      <defs>
       <path d="M 37.25 0 
L 28.46875 0 
L 28.46875 56 
Q 25.296875 52.984375 20.140625 49.953125 
Q 14.984375 46.921875 10.890625 45.40625 
L 10.890625 53.90625 
Q 18.265625 57.375 23.78125 62.296875 
Q 29.296875 67.234375 31.59375 71.875 
L 37.25 71.875 
z
" id="ArialMT-31"/>
      </defs>
      <g style="fill:#262626;" transform="translate(363.404093 684.905156)scale(0.13 -0.13)">
       <use xlink:href="#ArialMT-31"/>
       <use x="55.615234" xlink:href="#ArialMT-30"/>
      </g>
     </g>
    </g>
    <g id="xtick_11">
     <g id="line2d_61">
      <path clip-path="url(#p9f3dd7db7d)" d="M 442.544906 668.6 
L 442.544906 468 
" style="fill:none;stroke:#ffffff;stroke-linecap:round;"/>
     </g>
     <g id="line2d_62"/>
     <g id="text_33">
      <!-- 20 -->
      <g style="fill:#262626;" transform="translate(435.315687 684.905156)scale(0.13 -0.13)">
       <use xlink:href="#ArialMT-32"/>
       <use x="55.615234" xlink:href="#ArialMT-30"/>
      </g>
     </g>
    </g>
    <g id="xtick_12">
     <g id="line2d_63">
      <path clip-path="url(#p9f3dd7db7d)" d="M 514.456499 668.6 
L 514.456499 468 
" style="fill:none;stroke:#ffffff;stroke-linecap:round;"/>
     </g>
     <g id="line2d_64"/>
     <g id="text_34">
      <!-- 30 -->
      <defs>
       <path d="M 4.203125 18.890625 
L 12.984375 20.0625 
Q 14.5 12.59375 18.140625 9.296875 
Q 21.78125 6 27 6 
Q 33.203125 6 37.46875 10.296875 
Q 41.75 14.59375 41.75 20.953125 
Q 41.75 27 37.796875 30.921875 
Q 33.84375 34.859375 27.734375 34.859375 
Q 25.25 34.859375 21.53125 33.890625 
L 22.515625 41.609375 
Q 23.390625 41.5 23.921875 41.5 
Q 29.546875 41.5 34.03125 44.421875 
Q 38.53125 47.359375 38.53125 53.46875 
Q 38.53125 58.296875 35.25 61.46875 
Q 31.984375 64.65625 26.8125 64.65625 
Q 21.6875 64.65625 18.265625 61.421875 
Q 14.84375 58.203125 13.875 51.765625 
L 5.078125 53.328125 
Q 6.6875 62.15625 12.390625 67.015625 
Q 18.109375 71.875 26.609375 71.875 
Q 32.46875 71.875 37.390625 69.359375 
Q 42.328125 66.84375 44.9375 62.5 
Q 47.5625 58.15625 47.5625 53.265625 
Q 47.5625 48.640625 45.0625 44.828125 
Q 42.578125 41.015625 37.703125 38.765625 
Q 44.046875 37.3125 47.5625 32.6875 
Q 51.078125 28.078125 51.078125 21.140625 
Q 51.078125 11.765625 44.234375 5.25 
Q 37.40625 -1.265625 26.953125 -1.265625 
Q 17.53125 -1.265625 11.296875 4.34375 
Q 5.078125 9.96875 4.203125 18.890625 
" id="ArialMT-33"/>
      </defs>
      <g style="fill:#262626;" transform="translate(507.22728 684.905156)scale(0.13 -0.13)">
       <use xlink:href="#ArialMT-33"/>
       <use x="55.615234" xlink:href="#ArialMT-30"/>
      </g>
     </g>
    </g>
    <g id="text_35">
     <!-- $-\log_{10}{Q}$ -->
     <defs>
      <path d="M 10.59375 35.5 
L 73.1875 35.5 
L 73.1875 27.203125 
L 10.59375 27.203125 
z
" id="DejaVuSans-2212"/>
      <path d="M 9.421875 75.984375 
L 18.40625 75.984375 
L 18.40625 0 
L 9.421875 0 
z
" id="DejaVuSans-6c"/>
      <path d="M 30.609375 48.390625 
Q 23.390625 48.390625 19.1875 42.75 
Q 14.984375 37.109375 14.984375 27.296875 
Q 14.984375 17.484375 19.15625 11.84375 
Q 23.34375 6.203125 30.609375 6.203125 
Q 37.796875 6.203125 41.984375 11.859375 
Q 46.1875 17.53125 46.1875 27.296875 
Q 46.1875 37.015625 41.984375 42.703125 
Q 37.796875 48.390625 30.609375 48.390625 
M 30.609375 56 
Q 42.328125 56 49.015625 48.375 
Q 55.71875 40.765625 55.71875 27.296875 
Q 55.71875 13.875 49.015625 6.21875 
Q 42.328125 -1.421875 30.609375 -1.421875 
Q 18.84375 -1.421875 12.171875 6.21875 
Q 5.515625 13.875 5.515625 27.296875 
Q 5.515625 40.765625 12.171875 48.375 
Q 18.84375 56 30.609375 56 
" id="DejaVuSans-6f"/>
      <path d="M 45.40625 27.984375 
Q 45.40625 37.75 41.375 43.109375 
Q 37.359375 48.484375 30.078125 48.484375 
Q 22.859375 48.484375 18.828125 43.109375 
Q 14.796875 37.75 14.796875 27.984375 
Q 14.796875 18.265625 18.828125 12.890625 
Q 22.859375 7.515625 30.078125 7.515625 
Q 37.359375 7.515625 41.375 12.890625 
Q 45.40625 18.265625 45.40625 27.984375 
M 54.390625 6.78125 
Q 54.390625 -7.171875 48.1875 -13.984375 
Q 42 -20.796875 29.203125 -20.796875 
Q 24.46875 -20.796875 20.265625 -20.09375 
Q 16.0625 -19.390625 12.109375 -17.921875 
L 12.109375 -9.1875 
Q 16.0625 -11.328125 19.921875 -12.34375 
Q 23.78125 -13.375 27.78125 -13.375 
Q 36.625 -13.375 41.015625 -8.765625 
Q 45.40625 -4.15625 45.40625 5.171875 
L 45.40625 9.625 
Q 42.625 4.78125 38.28125 2.390625 
Q 33.9375 0 27.875 0 
Q 17.828125 0 11.671875 7.65625 
Q 5.515625 15.328125 5.515625 27.984375 
Q 5.515625 40.671875 11.671875 48.328125 
Q 17.828125 56 27.875 56 
Q 33.9375 56 38.28125 53.609375 
Q 42.625 51.21875 45.40625 46.390625 
L 45.40625 54.6875 
L 54.390625 54.6875 
z
" id="DejaVuSans-67"/>
      <path d="M 12.40625 8.296875 
L 28.515625 8.296875 
L 28.515625 63.921875 
L 10.984375 60.40625 
L 10.984375 69.390625 
L 28.421875 72.90625 
L 38.28125 72.90625 
L 38.28125 8.296875 
L 54.390625 8.296875 
L 54.390625 0 
L 12.40625 0 
z
" id="DejaVuSans-31"/>
      <path d="M 31.78125 66.40625 
Q 24.171875 66.40625 20.328125 58.90625 
Q 16.5 51.421875 16.5 36.375 
Q 16.5 21.390625 20.328125 13.890625 
Q 24.171875 6.390625 31.78125 6.390625 
Q 39.453125 6.390625 43.28125 13.890625 
Q 47.125 21.390625 47.125 36.375 
Q 47.125 51.421875 43.28125 58.90625 
Q 39.453125 66.40625 31.78125 66.40625 
M 31.78125 74.21875 
Q 44.046875 74.21875 50.515625 64.515625 
Q 56.984375 54.828125 56.984375 36.375 
Q 56.984375 17.96875 50.515625 8.265625 
Q 44.046875 -1.421875 31.78125 -1.421875 
Q 19.53125 -1.421875 13.0625 8.265625 
Q 6.59375 17.96875 6.59375 36.375 
Q 6.59375 54.828125 13.0625 64.515625 
Q 19.53125 74.21875 31.78125 74.21875 
" id="DejaVuSans-30"/>
      <path d="M 36.078125 -1.3125 
Q 35.546875 -1.375 34.953125 -1.390625 
Q 34.375 -1.421875 33.203125 -1.421875 
Q 19.53125 -1.421875 11.8125 6.421875 
Q 4.109375 14.265625 4.109375 28.078125 
Q 4.109375 36.234375 7.0625 44.4375 
Q 10.015625 52.640625 15.28125 59.1875 
Q 21.390625 66.703125 29.03125 70.453125 
Q 36.671875 74.21875 45.90625 74.21875 
Q 59.28125 74.21875 66.984375 66.328125 
Q 74.703125 58.453125 74.703125 44.828125 
Q 74.703125 30.125 66.640625 17.921875 
Q 58.59375 5.71875 45.609375 0.6875 
L 55.515625 -12.890625 
L 44.484375 -12.890625 
z
M 45.609375 66.21875 
Q 37.5 66.21875 31.296875 62.28125 
Q 25.09375 58.34375 20.515625 50.296875 
Q 17.578125 45.171875 16.03125 39.40625 
Q 14.5 33.640625 14.5 27.78125 
Q 14.5 17.625 19.359375 12.109375 
Q 24.21875 6.59375 33.109375 6.59375 
Q 41.109375 6.59375 47.375 10.5625 
Q 53.65625 14.546875 58.109375 22.40625 
Q 61.078125 27.6875 62.640625 33.46875 
Q 64.203125 39.265625 64.203125 45.015625 
Q 64.203125 55.125 59.3125 60.671875 
Q 54.4375 66.21875 45.609375 66.21875 
" id="DejaVuSans-Oblique-51"/>
     </defs>
     <g style="fill:#262626;" transform="translate(399.009219 702.888906)scale(0.15 -0.15)">
      <use transform="translate(0 0.015625)" xlink:href="#DejaVuSans-2212"/>
      <use transform="translate(83.789062 0.015625)" xlink:href="#DejaVuSans-6c"/>
      <use transform="translate(111.572266 0.015625)" xlink:href="#DejaVuSans-6f"/>
      <use transform="translate(172.753906 0.015625)" xlink:href="#DejaVuSans-67"/>
      <use transform="translate(237.1875 -16.390625)scale(0.7)" xlink:href="#DejaVuSans-31"/>
      <use transform="translate(281.723633 -16.390625)scale(0.7)" xlink:href="#DejaVuSans-30"/>
      <use transform="translate(328.994141 0.015625)" xlink:href="#DejaVuSans-Oblique-51"/>
     </g>
    </g>
   </g>
   <g id="matplotlib.axis_6">
    <g id="ytick_21">
     <g id="line2d_65"/>
     <g id="text_36">
      <!-- cell projection -->
      <defs>
       <path d="M 6.546875 61.375 
L 6.546875 71.578125 
L 15.328125 71.578125 
L 15.328125 61.375 
z
M -4.59375 -20.125 
L -2.9375 -12.640625 
Q -0.296875 -13.328125 1.21875 -13.328125 
Q 3.90625 -13.328125 5.21875 -11.546875 
Q 6.546875 -9.765625 6.546875 -2.640625 
L 6.546875 51.859375 
L 15.328125 51.859375 
L 15.328125 -2.828125 
Q 15.328125 -12.40625 12.84375 -16.15625 
Q 9.671875 -21.046875 2.296875 -21.046875 
Q -1.265625 -21.046875 -4.59375 -20.125 
" id="ArialMT-6a"/>
      </defs>
      <g style="fill:#262626;" transform="translate(212.240938 482.682578)scale(0.13 -0.13)">
       <use xlink:href="#ArialMT-63"/>
       <use x="50" xlink:href="#ArialMT-65"/>
       <use x="105.615234" xlink:href="#ArialMT-6c"/>
       <use x="127.832031" xlink:href="#ArialMT-6c"/>
       <use x="150.048828" xlink:href="#ArialMT-20"/>
       <use x="177.832031" xlink:href="#ArialMT-70"/>
       <use x="233.447266" xlink:href="#ArialMT-72"/>
       <use x="266.748047" xlink:href="#ArialMT-6f"/>
       <use x="322.363281" xlink:href="#ArialMT-6a"/>
       <use x="344.580078" xlink:href="#ArialMT-65"/>
       <use x="400.195312" xlink:href="#ArialMT-63"/>
       <use x="450.195312" xlink:href="#ArialMT-74"/>
       <use x="477.978516" xlink:href="#ArialMT-69"/>
       <use x="500.195312" xlink:href="#ArialMT-6f"/>
       <use x="555.810547" xlink:href="#ArialMT-6e"/>
      </g>
     </g>
    </g>
    <g id="ytick_22">
     <g id="line2d_66"/>
     <g id="text_37">
      <!-- cell body -->
      <g style="fill:#262626;" transform="translate(240.416406 502.742578)scale(0.13 -0.13)">
       <use xlink:href="#ArialMT-63"/>
       <use x="50" xlink:href="#ArialMT-65"/>
       <use x="105.615234" xlink:href="#ArialMT-6c"/>
       <use x="127.832031" xlink:href="#ArialMT-6c"/>
       <use x="150.048828" xlink:href="#ArialMT-20"/>
       <use x="177.832031" xlink:href="#ArialMT-62"/>
       <use x="233.447266" xlink:href="#ArialMT-6f"/>
       <use x="289.0625" xlink:href="#ArialMT-64"/>
       <use x="344.677734" xlink:href="#ArialMT-79"/>
      </g>
     </g>
    </g>
    <g id="ytick_23">
     <g id="line2d_67"/>
     <g id="text_38">
      <!-- neuropeptide signaling pathway -->
      <g style="fill:#262626;" transform="translate(108.87875 522.802578)scale(0.13 -0.13)">
       <use xlink:href="#ArialMT-6e"/>
       <use x="55.615234" xlink:href="#ArialMT-65"/>
       <use x="111.230469" xlink:href="#ArialMT-75"/>
       <use x="166.845703" xlink:href="#ArialMT-72"/>
       <use x="200.146484" xlink:href="#ArialMT-6f"/>
       <use x="255.761719" xlink:href="#ArialMT-70"/>
       <use x="311.376953" xlink:href="#ArialMT-65"/>
       <use x="366.992188" xlink:href="#ArialMT-70"/>
       <use x="422.607422" xlink:href="#ArialMT-74"/>
       <use x="450.390625" xlink:href="#ArialMT-69"/>
       <use x="472.607422" xlink:href="#ArialMT-64"/>
       <use x="528.222656" xlink:href="#ArialMT-65"/>
       <use x="583.837891" xlink:href="#ArialMT-20"/>
       <use x="611.621094" xlink:href="#ArialMT-73"/>
       <use x="661.621094" xlink:href="#ArialMT-69"/>
       <use x="683.837891" xlink:href="#ArialMT-67"/>
       <use x="739.453125" xlink:href="#ArialMT-6e"/>
       <use x="795.068359" xlink:href="#ArialMT-61"/>
       <use x="850.683594" xlink:href="#ArialMT-6c"/>
       <use x="872.900391" xlink:href="#ArialMT-69"/>
       <use x="895.117188" xlink:href="#ArialMT-6e"/>
       <use x="950.732422" xlink:href="#ArialMT-67"/>
       <use x="1006.347656" xlink:href="#ArialMT-20"/>
       <use x="1034.130859" xlink:href="#ArialMT-70"/>
       <use x="1089.746094" xlink:href="#ArialMT-61"/>
       <use x="1145.361328" xlink:href="#ArialMT-74"/>
       <use x="1173.144531" xlink:href="#ArialMT-68"/>
       <use x="1228.759766" xlink:href="#ArialMT-77"/>
       <use x="1300.976562" xlink:href="#ArialMT-61"/>
       <use x="1356.591797" xlink:href="#ArialMT-79"/>
      </g>
     </g>
    </g>
    <g id="ytick_24">
     <g id="line2d_68"/>
     <g id="text_39">
      <!-- cell projection organization -->
      <defs>
       <path d="M 1.953125 0 
L 1.953125 7.125 
L 34.96875 45.015625 
Q 29.34375 44.734375 25.046875 44.734375 
L 3.90625 44.734375 
L 3.90625 51.859375 
L 46.296875 51.859375 
L 46.296875 46.046875 
L 18.21875 13.140625 
L 12.796875 7.125 
Q 18.703125 7.5625 23.875 7.5625 
L 47.859375 7.5625 
L 47.859375 0 
z
" id="ArialMT-7a"/>
      </defs>
      <g style="fill:#262626;" transform="translate(137.807813 542.862578)scale(0.13 -0.13)">
       <use xlink:href="#ArialMT-63"/>
       <use x="50" xlink:href="#ArialMT-65"/>
       <use x="105.615234" xlink:href="#ArialMT-6c"/>
       <use x="127.832031" xlink:href="#ArialMT-6c"/>
       <use x="150.048828" xlink:href="#ArialMT-20"/>
       <use x="177.832031" xlink:href="#ArialMT-70"/>
       <use x="233.447266" xlink:href="#ArialMT-72"/>
       <use x="266.748047" xlink:href="#ArialMT-6f"/>
       <use x="322.363281" xlink:href="#ArialMT-6a"/>
       <use x="344.580078" xlink:href="#ArialMT-65"/>
       <use x="400.195312" xlink:href="#ArialMT-63"/>
       <use x="450.195312" xlink:href="#ArialMT-74"/>
       <use x="477.978516" xlink:href="#ArialMT-69"/>
       <use x="500.195312" xlink:href="#ArialMT-6f"/>
       <use x="555.810547" xlink:href="#ArialMT-6e"/>
       <use x="611.425781" xlink:href="#ArialMT-20"/>
       <use x="639.208984" xlink:href="#ArialMT-6f"/>
       <use x="694.824219" xlink:href="#ArialMT-72"/>
       <use x="728.125" xlink:href="#ArialMT-67"/>
       <use x="783.740234" xlink:href="#ArialMT-61"/>
       <use x="839.355469" xlink:href="#ArialMT-6e"/>
       <use x="894.970703" xlink:href="#ArialMT-69"/>
       <use x="917.1875" xlink:href="#ArialMT-7a"/>
       <use x="967.1875" xlink:href="#ArialMT-61"/>
       <use x="1022.802734" xlink:href="#ArialMT-74"/>
       <use x="1050.585938" xlink:href="#ArialMT-69"/>
       <use x="1072.802734" xlink:href="#ArialMT-6f"/>
       <use x="1128.417969" xlink:href="#ArialMT-6e"/>
      </g>
     </g>
    </g>
    <g id="ytick_25">
     <g id="line2d_69"/>
     <g id="text_40">
      <!-- cilium assembly -->
      <g style="fill:#262626;" transform="translate(199.982344 562.922578)scale(0.13 -0.13)">
       <use xlink:href="#ArialMT-63"/>
       <use x="50" xlink:href="#ArialMT-69"/>
       <use x="72.216797" xlink:href="#ArialMT-6c"/>
       <use x="94.433594" xlink:href="#ArialMT-69"/>
       <use x="116.650391" xlink:href="#ArialMT-75"/>
       <use x="172.265625" xlink:href="#ArialMT-6d"/>
       <use x="255.566406" xlink:href="#ArialMT-20"/>
       <use x="283.349609" xlink:href="#ArialMT-61"/>
       <use x="338.964844" xlink:href="#ArialMT-73"/>
       <use x="388.964844" xlink:href="#ArialMT-73"/>
       <use x="438.964844" xlink:href="#ArialMT-65"/>
       <use x="494.580078" xlink:href="#ArialMT-6d"/>
       <use x="577.880859" xlink:href="#ArialMT-62"/>
       <use x="633.496094" xlink:href="#ArialMT-6c"/>
       <use x="655.712891" xlink:href="#ArialMT-79"/>
      </g>
     </g>
    </g>
    <g id="ytick_26">
     <g id="line2d_70"/>
     <g id="text_41">
      <!-- plasma membrane -->
      <g style="fill:#262626;" transform="translate(184.073594 582.982578)scale(0.13 -0.13)">
       <use xlink:href="#ArialMT-70"/>
       <use x="55.615234" xlink:href="#ArialMT-6c"/>
       <use x="77.832031" xlink:href="#ArialMT-61"/>
       <use x="133.447266" xlink:href="#ArialMT-73"/>
       <use x="183.447266" xlink:href="#ArialMT-6d"/>
       <use x="266.748047" xlink:href="#ArialMT-61"/>
       <use x="322.363281" xlink:href="#ArialMT-20"/>
       <use x="350.146484" xlink:href="#ArialMT-6d"/>
       <use x="433.447266" xlink:href="#ArialMT-65"/>
       <use x="489.0625" xlink:href="#ArialMT-6d"/>
       <use x="572.363281" xlink:href="#ArialMT-62"/>
       <use x="627.978516" xlink:href="#ArialMT-72"/>
       <use x="661.279297" xlink:href="#ArialMT-61"/>
       <use x="716.894531" xlink:href="#ArialMT-6e"/>
       <use x="772.509766" xlink:href="#ArialMT-65"/>
      </g>
     </g>
    </g>
    <g id="ytick_27">
     <g id="line2d_71"/>
     <g id="text_42">
      <!-- oviposition -->
      <g style="fill:#262626;" transform="translate(230.29875 603.042578)scale(0.13 -0.13)">
       <use xlink:href="#ArialMT-6f"/>
       <use x="55.615234" xlink:href="#ArialMT-76"/>
       <use x="105.615234" xlink:href="#ArialMT-69"/>
       <use x="127.832031" xlink:href="#ArialMT-70"/>
       <use x="183.447266" xlink:href="#ArialMT-6f"/>
       <use x="239.0625" xlink:href="#ArialMT-73"/>
       <use x="289.0625" xlink:href="#ArialMT-69"/>
       <use x="311.279297" xlink:href="#ArialMT-74"/>
       <use x="339.0625" xlink:href="#ArialMT-69"/>
       <use x="361.279297" xlink:href="#ArialMT-6f"/>
       <use x="416.894531" xlink:href="#ArialMT-6e"/>
      </g>
     </g>
    </g>
    <g id="ytick_28">
     <g id="line2d_72"/>
     <g id="text_43">
      <!-- vesicle localization -->
      <g style="fill:#262626;" transform="translate(184.063438 623.102578)scale(0.13 -0.13)">
       <use xlink:href="#ArialMT-76"/>
       <use x="50" xlink:href="#ArialMT-65"/>
       <use x="105.615234" xlink:href="#ArialMT-73"/>
       <use x="155.615234" xlink:href="#ArialMT-69"/>
       <use x="177.832031" xlink:href="#ArialMT-63"/>
       <use x="227.832031" xlink:href="#ArialMT-6c"/>
       <use x="250.048828" xlink:href="#ArialMT-65"/>
       <use x="305.664062" xlink:href="#ArialMT-20"/>
       <use x="333.447266" xlink:href="#ArialMT-6c"/>
       <use x="355.664062" xlink:href="#ArialMT-6f"/>
       <use x="411.279297" xlink:href="#ArialMT-63"/>
       <use x="461.279297" xlink:href="#ArialMT-61"/>
       <use x="516.894531" xlink:href="#ArialMT-6c"/>
       <use x="539.111328" xlink:href="#ArialMT-69"/>
       <use x="561.328125" xlink:href="#ArialMT-7a"/>
       <use x="611.328125" xlink:href="#ArialMT-61"/>
       <use x="666.943359" xlink:href="#ArialMT-74"/>
       <use x="694.726562" xlink:href="#ArialMT-69"/>
       <use x="716.943359" xlink:href="#ArialMT-6f"/>
       <use x="772.558594" xlink:href="#ArialMT-6e"/>
      </g>
     </g>
    </g>
    <g id="ytick_29">
     <g id="line2d_73"/>
     <g id="text_44">
      <!-- reproduction -->
      <g style="fill:#262626;" transform="translate(219.46 643.162578)scale(0.13 -0.13)">
       <use xlink:href="#ArialMT-72"/>
       <use x="33.300781" xlink:href="#ArialMT-65"/>
       <use x="88.916016" xlink:href="#ArialMT-70"/>
       <use x="144.53125" xlink:href="#ArialMT-72"/>
       <use x="177.832031" xlink:href="#ArialMT-6f"/>
       <use x="233.447266" xlink:href="#ArialMT-64"/>
       <use x="289.0625" xlink:href="#ArialMT-75"/>
       <use x="344.677734" xlink:href="#ArialMT-63"/>
       <use x="394.677734" xlink:href="#ArialMT-74"/>
       <use x="422.460938" xlink:href="#ArialMT-69"/>
       <use x="444.677734" xlink:href="#ArialMT-6f"/>
       <use x="500.292969" xlink:href="#ArialMT-6e"/>
      </g>
     </g>
    </g>
    <g id="ytick_30">
     <g id="line2d_74"/>
     <g id="text_45">
      <!-- post-embryonic development -->
      <defs>
       <path d="M 3.171875 21.484375 
L 3.171875 30.328125 
L 30.171875 30.328125 
L 30.171875 21.484375 
z
" id="ArialMT-2d"/>
      </defs>
      <g style="fill:#262626;" transform="translate(124.815938 663.222578)scale(0.13 -0.13)">
       <use xlink:href="#ArialMT-70"/>
       <use x="55.615234" xlink:href="#ArialMT-6f"/>
       <use x="111.230469" xlink:href="#ArialMT-73"/>
       <use x="161.230469" xlink:href="#ArialMT-74"/>
       <use x="189.013672" xlink:href="#ArialMT-2d"/>
       <use x="222.314453" xlink:href="#ArialMT-65"/>
       <use x="277.929688" xlink:href="#ArialMT-6d"/>
       <use x="361.230469" xlink:href="#ArialMT-62"/>
       <use x="416.845703" xlink:href="#ArialMT-72"/>
       <use x="450.146484" xlink:href="#ArialMT-79"/>
       <use x="500.146484" xlink:href="#ArialMT-6f"/>
       <use x="555.761719" xlink:href="#ArialMT-6e"/>
       <use x="611.376953" xlink:href="#ArialMT-69"/>
       <use x="633.59375" xlink:href="#ArialMT-63"/>
       <use x="683.59375" xlink:href="#ArialMT-20"/>
       <use x="711.376953" xlink:href="#ArialMT-64"/>
       <use x="766.992188" xlink:href="#ArialMT-65"/>
       <use x="822.607422" xlink:href="#ArialMT-76"/>
       <use x="872.607422" xlink:href="#ArialMT-65"/>
       <use x="928.222656" xlink:href="#ArialMT-6c"/>
       <use x="950.439453" xlink:href="#ArialMT-6f"/>
       <use x="1006.054688" xlink:href="#ArialMT-70"/>
       <use x="1061.669922" xlink:href="#ArialMT-6d"/>
       <use x="1144.970703" xlink:href="#ArialMT-65"/>
       <use x="1200.585938" xlink:href="#ArialMT-6e"/>
       <use x="1256.201172" xlink:href="#ArialMT-74"/>
      </g>
     </g>
    </g>
    <g id="text_46">
     <!-- go -->
     <g style="fill:#262626;" transform="translate(101.721719 576.641406)rotate(-90)scale(0.15 -0.15)">
      <use xlink:href="#ArialMT-67"/>
      <use x="55.615234" xlink:href="#ArialMT-6f"/>
     </g>
    </g>
   </g>
   <g id="patch_33">
    <path clip-path="url(#p9f3dd7db7d)" d="M 298.721719 470.006 
L 548.031243 470.006 
L 548.031243 486.054 
L 298.721719 486.054 
z
" style="fill:#ea96a3;"/>
   </g>
   <g id="patch_34">
    <path clip-path="url(#p9f3dd7db7d)" d="M 298.721719 490.066 
L 416.533124 490.066 
L 416.533124 506.114 
L 298.721719 506.114 
z
" style="fill:#d7944e;"/>
   </g>
   <g id="patch_35">
    <path clip-path="url(#p9f3dd7db7d)" d="M 298.721719 510.126 
L 416.533124 510.126 
L 416.533124 526.174 
L 298.721719 526.174 
z
" style="fill:#ab9e47;"/>
   </g>
   <g id="patch_36">
    <path clip-path="url(#p9f3dd7db7d)" d="M 298.721719 530.186 
L 398.386252 530.186 
L 398.386252 546.234 
L 298.721719 546.234 
z
" style="fill:#7fa946;"/>
   </g>
   <g id="patch_37">
    <path clip-path="url(#p9f3dd7db7d)" d="M 298.721719 550.246 
L 385.257652 550.246 
L 385.257652 566.294 
L 298.721719 566.294 
z
" style="fill:#49ae83;"/>
   </g>
   <g id="patch_38">
    <path clip-path="url(#p9f3dd7db7d)" d="M 298.721719 570.306 
L 377.568511 570.306 
L 377.568511 586.354 
L 298.721719 586.354 
z
" style="fill:#4baba4;"/>
   </g>
   <g id="patch_39">
    <path clip-path="url(#p9f3dd7db7d)" d="M 298.721719 590.366 
L 355.302866 590.366 
L 355.302866 606.414 
L 298.721719 606.414 
z
" style="fill:#50acc3;"/>
   </g>
   <g id="patch_40">
    <path clip-path="url(#p9f3dd7db7d)" d="M 298.721719 610.426 
L 353.652997 610.426 
L 353.652997 626.474 
L 298.721719 626.474 
z
" style="fill:#94aee8;"/>
   </g>
   <g id="patch_41">
    <path clip-path="url(#p9f3dd7db7d)" d="M 298.721719 630.486 
L 343.849367 630.486 
L 343.849367 646.534 
L 298.721719 646.534 
z
" style="fill:#ce9be9;"/>
   </g>
   <g id="patch_42">
    <path clip-path="url(#p9f3dd7db7d)" d="M 298.721719 650.546 
L 338.650125 650.546 
L 338.650125 666.594 
L 298.721719 666.594 
z
" style="fill:#e88fcc;"/>
   </g>
   <g id="line2d_75">
    <path clip-path="url(#p9f3dd7db7d)" d="M 0 0 
" style="fill:none;stroke:#424242;stroke-linecap:round;stroke-width:3.15;"/>
   </g>
   <g id="line2d_76">
    <path clip-path="url(#p9f3dd7db7d)" d="M 0 0 
" style="fill:none;stroke:#424242;stroke-linecap:round;stroke-width:3.15;"/>
   </g>
   <g id="line2d_77">
    <path clip-path="url(#p9f3dd7db7d)" d="M 0 0 
" style="fill:none;stroke:#424242;stroke-linecap:round;stroke-width:3.15;"/>
   </g>
   <g id="line2d_78">
    <path clip-path="url(#p9f3dd7db7d)" d="M 0 0 
" style="fill:none;stroke:#424242;stroke-linecap:round;stroke-width:3.15;"/>
   </g>
   <g id="line2d_79">
    <path clip-path="url(#p9f3dd7db7d)" d="M 0 0 
" style="fill:none;stroke:#424242;stroke-linecap:round;stroke-width:3.15;"/>
   </g>
   <g id="line2d_80">
    <path clip-path="url(#p9f3dd7db7d)" d="M 0 0 
" style="fill:none;stroke:#424242;stroke-linecap:round;stroke-width:3.15;"/>
   </g>
   <g id="line2d_81">
    <path clip-path="url(#p9f3dd7db7d)" d="M 0 0 
" style="fill:none;stroke:#424242;stroke-linecap:round;stroke-width:3.15;"/>
   </g>
   <g id="line2d_82">
    <path clip-path="url(#p9f3dd7db7d)" d="M 0 0 
" style="fill:none;stroke:#424242;stroke-linecap:round;stroke-width:3.15;"/>
   </g>
   <g id="line2d_83">
    <path clip-path="url(#p9f3dd7db7d)" d="M 0 0 
" style="fill:none;stroke:#424242;stroke-linecap:round;stroke-width:3.15;"/>
   </g>
   <g id="line2d_84">
    <path clip-path="url(#p9f3dd7db7d)" d="M 0 0 
" style="fill:none;stroke:#424242;stroke-linecap:round;stroke-width:3.15;"/>
   </g>
   <g id="patch_43">
    <path d="M 298.721719 668.6 
L 298.721719 468 
" style="fill:none;"/>
   </g>
   <g id="patch_44">
    <path d="M 560.496719 668.6 
L 560.496719 468 
" style="fill:none;"/>
   </g>
   <g id="patch_45">
    <path d="M 298.721719 668.6 
L 560.496719 668.6 
" style="fill:none;"/>
   </g>
   <g id="patch_46">
    <path d="M 298.721719 468 
L 560.496719 468 
" style="fill:none;"/>
   </g>
  </g>
 </g>
 <defs>
  <clipPath id="p9a7180607a">
   <rect height="200.6" width="261.775" x="298.721719" y="7.2"/>
  </clipPath>
  <clipPath id="p625649b1ac">
   <rect height="200.6" width="261.775" x="298.721719" y="237.6"/>
  </clipPath>
  <clipPath id="p9f3dd7db7d">
   <rect height="200.6" width="261.775" x="298.721719" y="468"/>
  </clipPath>
 </defs>
</svg>
